<svg width="340" height="111" viewBox="0 0 340 111" fill="none" xmlns="http://www.w3.org/2000/svg">
<g clip-path="url(#clip0_149_1239)">
<path d="M35.3797 33.186H50.3673C44.4103 33.186 41.4231 39.8647 41.4231 53.2392C41.4231 63.9043 43.3224 70.3241 47.1211 72.464H32.1336C28.3349 70.3241 26.4355 63.9043 26.4355 53.2392C26.4528 39.8647 29.4227 33.186 35.3797 33.186Z" fill="#1C5771"/>
<path d="M32.1504 72.4639H47.1379C47.5351 72.6882 47.9667 72.8781 48.4157 72.9989H33.4281C32.9792 72.8781 32.5475 72.6882 32.1504 72.4639Z" fill="#1C5771"/>
<path d="M33.4297 72.999H48.4172C48.8489 73.1371 49.3151 73.2061 49.7986 73.2406H34.811C34.3276 73.2234 33.8614 73.1371 33.4297 72.999Z" fill="#1C5771"/>
<path d="M34.8086 73.2583H49.7961C49.9861 73.2756 50.176 73.2756 50.3832 73.2756H35.3957C35.1885 73.2756 34.9985 73.2756 34.8086 73.2583Z" fill="#1C5771"/>
<path d="M35.3789 11.7695H50.3665C51.4715 11.7695 52.5421 11.804 53.6126 11.8903H38.6251C37.5545 11.8213 36.484 11.7695 35.3789 11.7695Z" fill="#1C5771"/>
<path d="M38.625 11.8901H53.6126C56.168 12.0972 58.6027 12.5287 60.9337 13.219H45.9461C43.6151 12.5459 41.1805 12.0972 38.625 11.8901Z" fill="#1C5771"/>
<path d="M45.9277 13.2192H60.9153C63.2636 13.9095 65.5082 14.8587 67.6148 16.0495H52.6272C50.5207 14.8587 48.2933 13.9268 45.9277 13.2192Z" fill="#1C5771"/>
<path d="M52.6465 16.0493H67.634C68.0139 16.2564 68.3765 16.4808 68.7391 16.7051C74.0573 19.984 78.2186 24.7298 81.223 30.9598H66.2354C63.2137 24.7298 59.0525 19.984 53.7516 16.7051C53.389 16.4808 53.0091 16.2737 52.6465 16.0493Z" fill="#1C5771"/>
<path d="M66.2346 30.9771H81.2222C84.2439 37.2243 85.7461 44.6277 85.7461 53.2564C85.7461 61.8679 84.2266 69.2886 81.2222 75.5186C78.2005 81.7485 74.0392 86.4943 68.7383 89.7905C63.4201 93.0694 57.2904 94.7089 50.3665 94.7089H35.3789C42.3029 94.7089 48.4153 93.0694 53.7508 89.7905C59.0689 86.4943 63.2302 81.7485 66.2346 75.5186C69.2563 69.2886 70.7585 61.8679 70.7585 53.2564C70.7585 44.6277 69.2563 37.207 66.2346 30.9771Z" fill="#1C5771"/>
<g filter="url(#filter0_i_149_1239)">
<path d="M66.2353 30.9771C69.257 37.2243 70.7592 44.6277 70.7592 53.2565C70.7592 61.868 69.2398 69.2887 66.2353 75.5186C63.2136 81.7485 59.0524 86.4943 53.7515 89.7905C48.4333 93.0694 42.3036 94.7089 35.3796 94.7089C28.4556 94.7089 22.3432 93.0694 17.0078 89.7905C11.6896 86.4943 7.51105 81.7485 4.50663 75.5186C1.50221 69.2714 0 61.8507 0 53.2392C0 44.6105 1.50221 37.207 4.50663 30.9598C7.52831 24.7299 11.7069 19.9841 17.0078 16.7052C22.3259 13.409 28.4556 11.7695 35.3796 11.7695C42.3036 11.7695 48.416 13.409 53.7515 16.7052C59.0524 19.9841 63.2136 24.7471 66.2353 30.9771ZM35.3796 73.2751C41.3366 73.2751 44.3065 66.5965 44.3065 53.2392C44.3065 39.8647 41.3366 33.186 35.3796 33.186C29.4226 33.186 26.4354 39.8647 26.4354 53.2392C26.4527 66.5965 29.4226 73.2751 35.3796 73.2751Z" fill="#4A90AE"/>
</g>
<path d="M99.662 94.1226H114.65L106.845 111H91.8574L99.662 94.1226Z" fill="#1C5771"/>
<path d="M89.2852 64.7847H104.273C104.791 64.7847 105.309 64.8019 105.809 64.8364H90.8219C90.3212 64.8019 89.8032 64.7847 89.2852 64.7847Z" fill="#1C5771"/>
<path d="M90.8223 64.8364H105.81C107.001 64.9227 108.106 65.1298 109.177 65.4404H94.1893C93.1187 65.1298 91.9964 64.94 90.8223 64.8364Z" fill="#1C5771"/>
<path d="M94.1719 65.4404H109.159C110.195 65.7511 111.162 66.148 112.078 66.6657H97.09C96.1921 66.1653 95.2079 65.7511 94.1719 65.4404Z" fill="#1C5771"/>
<path d="M97.0898 66.6831H112.077C113.079 67.2526 114.011 67.9429 114.875 68.7713C117.637 71.4116 119.001 74.9149 119.001 79.2983C119.001 81.2484 118.742 83.233 118.224 85.1831C117.706 87.1505 116.515 90.136 114.65 94.1225H99.6626C101.527 90.136 102.719 87.1505 103.237 85.1831C103.755 83.233 104.014 81.2484 104.014 79.2983C104.014 74.9149 102.632 71.4116 99.8871 68.7713C99.041 67.9429 98.1086 67.2526 97.0898 66.6831Z" fill="#1C5771"/>
<g filter="url(#filter1_i_149_1239)">
<path d="M89.2855 64.7847C93.6022 64.7847 97.1419 66.1135 99.8873 68.7539C102.633 71.3943 104.014 74.8975 104.014 79.2809C104.014 81.231 103.755 83.2156 103.237 85.1657C102.719 87.1331 101.528 90.1186 99.6628 94.1051L91.8583 110.983H76.2318L81.8263 91.8271C79.5125 90.7054 77.7168 89.0659 76.4736 86.9087C75.1958 84.7688 74.5742 82.2147 74.5742 79.2637C74.5742 74.8803 75.9383 71.377 78.6837 68.7366C81.4291 66.1135 84.9688 64.7847 89.2855 64.7847Z" fill="#4A90AE"/>
</g>
<path d="M115.619 67.8389H130.607C130.848 67.9769 131.09 68.115 131.332 68.253H116.344C116.103 68.1322 115.861 67.9769 115.619 67.8389Z" fill="#1C5771"/>
<path d="M116.344 68.2705H131.331C133.99 69.7719 136.805 70.9454 139.792 71.8255H124.804C121.817 70.9454 119.003 69.7546 116.344 68.2705Z" fill="#1C5771"/>
<path d="M124.805 71.8252H139.792C140.172 71.946 140.552 72.0495 140.949 72.1531C143.591 72.8607 146.164 73.3093 148.685 73.5164H133.697C131.193 73.3266 128.621 72.8779 125.962 72.1531C125.564 72.0495 125.185 71.9287 124.805 71.8252Z" fill="#1C5771"/>
<path d="M133.682 73.499H148.669C149.653 73.5681 150.638 73.6198 151.587 73.6198H136.6C135.65 73.6198 134.666 73.5853 133.682 73.499Z" fill="#1C5771"/>
<path d="M168.973 30.0107H183.96L169.456 44.973H154.469L168.973 30.0107Z" fill="#1C5771"/>
<path d="M183.96 13.5986H168.973V30.0105H183.96V13.5986Z" fill="#1C5771"/>
<path d="M110.715 13.5988L125.702 13.5815H183.96L168.973 13.5988H110.715Z" fill="#1C5771"/>
<path d="M154.469 44.9727H169.456C169.957 45.0935 170.44 45.2315 170.924 45.3696H155.919C155.453 45.2143 154.952 45.0935 154.469 44.9727Z" fill="#1C5771"/>
<path d="M155.92 45.3696H170.907C173.152 46.0254 175.172 46.871 177.003 47.9065H162.015C160.202 46.871 158.165 46.0254 155.92 45.3696Z" fill="#1C5771"/>
<path d="M162.015 47.8892H177.002C179.506 49.3043 181.63 51.0645 183.339 53.1699C186.586 57.1392 188.191 61.9195 188.191 67.4936C188.191 72.2567 186.914 76.6919 184.358 80.7991C181.785 84.9237 177.831 88.2716 172.461 90.8257C167.109 93.3971 160.444 94.6741 152.484 94.6741H137.496C145.456 94.6741 152.104 93.3798 157.474 90.8257C162.826 88.2544 166.798 84.9064 169.371 80.7991C171.943 76.6919 173.204 72.2567 173.204 67.4936C173.204 61.9195 171.598 57.1392 168.352 53.1699C166.642 51.0818 164.536 49.3043 162.015 47.8892Z" fill="#1C5771"/>
<g filter="url(#filter2_i_149_1239)">
<path d="M168.973 13.6006V30.0124L154.469 44.9746C160.495 46.476 165.14 49.2372 168.369 53.1892C171.615 57.1584 173.221 61.9387 173.221 67.5129C173.221 72.2759 171.943 76.7111 169.387 80.8184C166.815 84.9429 162.861 88.2909 157.491 90.845C152.138 93.4163 145.473 94.6934 137.513 94.6934C132.005 94.6934 126.514 94.0894 121.04 92.8814C115.584 91.6733 110.784 89.8958 106.709 87.5488L115.636 67.8408C118.83 69.7391 122.284 71.1715 125.961 72.1379C129.657 73.1388 133.196 73.622 136.615 73.622C139.671 73.622 142.123 73.0871 143.988 72.0343C145.835 70.9816 146.768 69.463 146.768 67.4956C146.768 63.8716 143.677 62.0595 137.513 62.0595H127.118V45.6477L138.635 33.7573H110.715V13.6006H168.973Z" fill="#4A90AE"/>
</g>
<path d="M214.522 33.186H229.51C223.553 33.186 220.566 39.8647 220.566 53.2392C220.566 63.9043 222.465 70.3241 226.264 72.464H211.276C207.477 70.3241 205.578 63.9043 205.578 53.2392C205.578 39.8647 208.565 33.186 214.522 33.186Z" fill="#1C5771"/>
<path d="M211.293 72.4639H226.281C226.678 72.6882 227.109 72.8781 227.558 72.9989H212.571C212.105 72.8781 211.69 72.6882 211.293 72.4639Z" fill="#1C5771"/>
<path d="M212.553 72.999H227.54C227.972 73.1371 228.438 73.2061 228.922 73.2406H213.934C213.451 73.2234 213.002 73.1371 212.553 72.999Z" fill="#1C5771"/>
<path d="M213.936 73.2583H228.923C229.113 73.2756 229.303 73.2756 229.51 73.2756H214.523C214.315 73.2756 214.125 73.2756 213.936 73.2583Z" fill="#1C5771"/>
<path d="M214.521 11.7695H229.509C230.614 11.7695 231.685 11.804 232.755 11.8903H217.768C216.697 11.8213 215.609 11.7695 214.521 11.7695Z" fill="#1C5771"/>
<path d="M217.75 11.8901H232.738C235.293 12.0972 237.728 12.5287 240.041 13.219H225.054C222.74 12.5459 220.305 12.0972 217.75 11.8901Z" fill="#1C5771"/>
<path d="M225.055 13.2192H240.042C242.391 13.9095 244.618 14.8414 246.707 16.0322H231.72C229.63 14.8587 227.403 13.9095 225.055 13.2192Z" fill="#1C5771"/>
<path d="M231.736 16.0322H246.724C247.104 16.2393 247.484 16.4637 247.863 16.7053C253.182 19.9842 257.36 24.73 260.365 30.9599H245.377C242.355 24.73 238.194 19.9842 232.876 16.7053C232.496 16.4809 232.116 16.2566 231.736 16.0322Z" fill="#1C5771"/>
<path d="M245.36 30.9771H260.347C263.369 37.2243 264.871 44.6277 264.871 53.2564C264.871 61.8679 263.352 69.2886 260.347 75.5186C257.325 81.7485 253.164 86.4943 247.846 89.7905C242.528 93.0694 236.415 94.7089 229.491 94.7089H214.504C221.428 94.7089 227.54 93.0694 232.858 89.7905C238.177 86.4943 242.355 81.7485 245.36 75.5186C248.381 69.2886 249.884 61.8679 249.884 53.2564C249.901 44.6277 248.381 37.207 245.36 30.9771Z" fill="#1C5771"/>
<g filter="url(#filter3_i_149_1239)">
<path d="M245.36 30.9789C248.382 37.2261 249.884 44.6295 249.884 53.2583C249.884 61.8697 248.365 69.2904 245.36 75.5204C242.339 81.7503 238.177 86.4961 232.859 89.7923C227.541 93.0712 221.429 94.7107 214.505 94.7107C207.581 94.7107 201.468 93.0712 196.133 89.7923C190.815 86.4961 186.636 81.7503 183.632 75.5204C180.61 69.2904 179.125 61.8697 179.125 53.2583C179.125 44.6295 180.627 37.2261 183.632 30.9789C186.653 24.7489 190.815 20.0031 196.133 16.7242C201.451 13.428 207.581 11.7886 214.505 11.7886C221.429 11.7886 227.541 13.428 232.859 16.7242C238.195 19.9859 242.356 24.7489 245.36 30.9789ZM214.522 73.2769C220.479 73.2769 223.449 66.5983 223.449 53.241C223.449 39.8665 220.479 33.1878 214.522 33.1878C208.565 33.1878 205.578 39.8665 205.578 53.241C205.578 66.5983 208.565 73.2769 214.522 73.2769Z" fill="#4A90AE"/>
</g>
<path d="M263.059 67.0454H278.046C278.288 67.1835 278.547 67.3388 278.789 67.4768H263.801C263.559 67.3388 263.3 67.2007 263.059 67.0454Z" fill="#1C5771"/>
<path d="M263.818 67.4771H278.806C282.225 69.4099 286.024 70.9803 290.168 72.1883H275.18C271.019 70.9803 267.237 69.4099 263.818 67.4771Z" fill="#1C5771"/>
<path d="M275.162 72.2056H290.15C290.288 72.2401 290.409 72.2746 290.547 72.3264C293.948 73.31 297.281 73.9313 300.492 74.1902H285.505C282.293 73.9313 278.978 73.3273 275.559 72.3264C275.438 72.2746 275.3 72.2401 275.162 72.2056Z" fill="#1C5771"/>
<path d="M285.506 74.1724H300.493C301.616 74.2587 302.738 74.3104 303.843 74.3104H288.856C287.751 74.3104 286.628 74.2587 285.506 74.1724Z" fill="#1C5771"/>
<path d="M313.995 93.8979H299.008V106.461H313.995V93.8979Z" fill="#1C5771"/>
<path d="M313.995 0H299.008V12.1147H313.995V0Z" fill="#1C5771"/>
<path d="M321.662 18.6899H336.649L328.724 38.0528H313.736L321.662 18.6899Z" fill="#1C5771"/>
<path d="M299.008 12.1147H313.995C318.554 12.5462 322.75 13.3228 326.583 14.4618H311.595C307.762 13.3228 303.566 12.5462 299.008 12.1147Z" fill="#1C5771"/>
<path d="M311.594 14.4619H326.581C330.173 15.5146 333.436 16.878 336.406 18.5519H321.418C318.449 16.878 315.185 15.5146 311.594 14.4619Z" fill="#1C5771"/>
<path d="M321.42 18.5518H336.407C336.494 18.6035 336.563 18.638 336.649 18.6898H321.662C321.575 18.638 321.506 18.6035 321.42 18.5518Z" fill="#1C5771"/>
<path d="M291.963 32.168H306.951C300.182 32.168 296.781 33.8247 296.781 37.1554C296.781 38.4669 297.471 39.5024 298.835 40.279H283.848C282.484 39.5024 281.793 38.4669 281.793 37.1554C281.81 33.8247 285.212 32.168 291.963 32.168Z" fill="#1C5771"/>
<path d="M283.865 40.2617H298.853C299.146 40.417 299.457 40.5724 299.82 40.7104C300.424 40.952 301.132 41.1936 301.978 41.4352H286.991C286.162 41.1936 285.437 40.952 284.832 40.7104C284.47 40.5896 284.142 40.4343 283.865 40.2617Z" fill="#1C5771"/>
<path d="M286.973 41.4521H301.96C303.911 42.0216 306.501 42.6257 309.748 43.2814C313.961 44.0925 317.725 44.9727 321.005 45.9391H306.018C302.737 44.9727 298.973 44.0753 294.76 43.2814C291.514 42.6257 288.924 42.0216 286.973 41.4521Z" fill="#1C5771"/>
<path d="M306.018 45.9395H321.005C322.352 46.3364 323.63 46.7506 324.821 47.182C326.202 47.6825 327.515 48.2865 328.775 48.994H313.788C312.527 48.2865 311.215 47.6825 309.834 47.182C308.642 46.7506 307.364 46.3364 306.018 45.9395Z" fill="#1C5771"/>
<path d="M313.788 48.9771H328.776C331.245 50.3749 333.472 52.1697 335.475 54.3614C338.497 57.6921 339.999 62.2135 339.999 67.9603C339.999 74.2938 337.754 79.8334 333.248 84.5447C328.741 89.2732 322.318 92.3796 313.995 93.8982H299.008C307.33 92.3796 313.754 89.2732 318.26 84.5447C322.767 79.8161 325.012 74.2938 325.012 67.9603C325.012 62.2135 323.492 57.6748 320.488 54.3614C318.485 52.1697 316.257 50.3749 313.788 48.9771Z" fill="#1C5771"/>
<g filter="url(#filter4_i_149_1239)">
<path d="M299.007 0V12.1147C307.934 12.9604 315.48 15.1348 321.661 18.6898L313.736 38.0527C306.07 34.1353 298.818 32.1679 291.98 32.1679C285.211 32.1679 281.81 33.8246 281.81 37.1553C281.81 38.743 282.811 39.9338 284.831 40.7276C286.852 41.5215 290.15 42.3498 294.76 43.2817C300.717 44.4207 305.742 45.715 309.834 47.1819C313.926 48.6488 317.466 51.0648 320.487 54.3783C323.509 57.709 325.011 62.2304 325.011 67.9771C325.011 74.3106 322.767 79.8503 318.26 84.5616C313.753 89.2901 307.33 92.3965 299.007 93.9151V106.479H283.26V94.4674C277.683 94.174 272.348 93.2938 267.254 91.8615C262.16 90.4291 257.93 88.6688 254.58 86.5462L263.058 67.0625C266.77 69.2542 270.949 71.0145 275.559 72.326C280.169 73.6549 284.607 74.3106 288.837 74.3106C292.481 74.3106 295.088 73.9482 296.642 73.2407C298.196 72.5331 298.99 71.4459 298.99 70.0135C298.99 68.3568 297.971 67.1143 295.917 66.2687C293.862 65.4403 290.495 64.5257 285.816 63.5592C279.79 62.2822 274.765 60.9016 270.742 59.4347C266.736 57.9678 263.231 55.5518 260.261 52.1866C257.274 48.8386 255.789 44.2826 255.789 38.5359C255.789 31.909 258.137 26.1968 262.868 21.4338C267.599 16.688 274.385 13.6507 283.243 12.3736V0H299.007Z" fill="#4A90AE"/>
</g>
</g>
<defs>
<filter id="filter0_i_149_1239" x="0" y="11.7695" width="71.7598" height="83.9395" filterUnits="userSpaceOnUse" color-interpolation-filters="sRGB">
<feFlood flood-opacity="0" result="BackgroundImageFix"/>
<feBlend mode="normal" in="SourceGraphic" in2="BackgroundImageFix" result="shape"/>
<feColorMatrix in="SourceAlpha" type="matrix" values="0 0 0 0 0 0 0 0 0 0 0 0 0 0 0 0 0 0 127 0" result="hardAlpha"/>
<feOffset dx="2" dy="2"/>
<feGaussianBlur stdDeviation="0.5"/>
<feComposite in2="hardAlpha" operator="arithmetic" k2="-1" k3="1"/>
<feColorMatrix type="matrix" values="0 0 0 0 0.635 0 0 0 0 0.714126 0 0 0 0 1 0 0 0 1 0"/>
<feBlend mode="normal" in2="shape" result="effect1_innerShadow_149_1239"/>
</filter>
<filter id="filter1_i_149_1239" x="74.5742" y="64.7847" width="30.4395" height="47.1982" filterUnits="userSpaceOnUse" color-interpolation-filters="sRGB">
<feFlood flood-opacity="0" result="BackgroundImageFix"/>
<feBlend mode="normal" in="SourceGraphic" in2="BackgroundImageFix" result="shape"/>
<feColorMatrix in="SourceAlpha" type="matrix" values="0 0 0 0 0 0 0 0 0 0 0 0 0 0 0 0 0 0 127 0" result="hardAlpha"/>
<feOffset dx="2" dy="2"/>
<feGaussianBlur stdDeviation="0.5"/>
<feComposite in2="hardAlpha" operator="arithmetic" k2="-1" k3="1"/>
<feColorMatrix type="matrix" values="0 0 0 0 0.635 0 0 0 0 0.714126 0 0 0 0 1 0 0 0 1 0"/>
<feBlend mode="normal" in2="shape" result="effect1_innerShadow_149_1239"/>
</filter>
<filter id="filter2_i_149_1239" x="106.709" y="13.6006" width="67.5117" height="82.0928" filterUnits="userSpaceOnUse" color-interpolation-filters="sRGB">
<feFlood flood-opacity="0" result="BackgroundImageFix"/>
<feBlend mode="normal" in="SourceGraphic" in2="BackgroundImageFix" result="shape"/>
<feColorMatrix in="SourceAlpha" type="matrix" values="0 0 0 0 0 0 0 0 0 0 0 0 0 0 0 0 0 0 127 0" result="hardAlpha"/>
<feOffset dx="2" dy="2"/>
<feGaussianBlur stdDeviation="0.5"/>
<feComposite in2="hardAlpha" operator="arithmetic" k2="-1" k3="1"/>
<feColorMatrix type="matrix" values="0 0 0 0 0.635 0 0 0 0 0.714126 0 0 0 0 1 0 0 0 1 0"/>
<feBlend mode="normal" in2="shape" result="effect1_innerShadow_149_1239"/>
</filter>
<filter id="filter3_i_149_1239" x="179.125" y="11.7886" width="71.7598" height="83.9224" filterUnits="userSpaceOnUse" color-interpolation-filters="sRGB">
<feFlood flood-opacity="0" result="BackgroundImageFix"/>
<feBlend mode="normal" in="SourceGraphic" in2="BackgroundImageFix" result="shape"/>
<feColorMatrix in="SourceAlpha" type="matrix" values="0 0 0 0 0 0 0 0 0 0 0 0 0 0 0 0 0 0 127 0" result="hardAlpha"/>
<feOffset dx="2" dy="2"/>
<feGaussianBlur stdDeviation="0.5"/>
<feComposite in2="hardAlpha" operator="arithmetic" k2="-1" k3="1"/>
<feColorMatrix type="matrix" values="0 0 0 0 0.635 0 0 0 0 0.714126 0 0 0 0 1 0 0 0 1 0"/>
<feBlend mode="normal" in2="shape" result="effect1_innerShadow_149_1239"/>
</filter>
<filter id="filter4_i_149_1239" x="254.58" y="0" width="71.4316" height="107.479" filterUnits="userSpaceOnUse" color-interpolation-filters="sRGB">
<feFlood flood-opacity="0" result="BackgroundImageFix"/>
<feBlend mode="normal" in="SourceGraphic" in2="BackgroundImageFix" result="shape"/>
<feColorMatrix in="SourceAlpha" type="matrix" values="0 0 0 0 0 0 0 0 0 0 0 0 0 0 0 0 0 0 127 0" result="hardAlpha"/>
<feOffset dx="2" dy="2"/>
<feGaussianBlur stdDeviation="0.5"/>
<feComposite in2="hardAlpha" operator="arithmetic" k2="-1" k3="1"/>
<feColorMatrix type="matrix" values="0 0 0 0 0.635 0 0 0 0 0.714126 0 0 0 0 1 0 0 0 1 0"/>
<feBlend mode="normal" in2="shape" result="effect1_innerShadow_149_1239"/>
</filter>
<clipPath id="clip0_149_1239">
<rect width="340" height="111" fill="white"/>
</clipPath>
</defs>
</svg>
