<svg width="396" height="114" viewBox="0 0 396 114" fill="none" xmlns="http://www.w3.org/2000/svg">
<g clip-path="url(#clip0_149_1318)">
<path d="M59.1943 14.5522H42.8984V99.4474H59.1943V14.5522Z" fill="#1C5771"/>
<g filter="url(#filter0_i_149_1318)">
<path d="M42.8986 14.5522V99.4474H14.456V36.1389H0V14.5522H42.8986Z" fill="#4A90AE"/>
</g>
<path d="M91.4662 35.5439H107.762C101.323 35.5439 98.1122 42.6899 98.1122 57.0004C98.1122 68.445 100.159 75.3118 104.27 77.6008H87.9743C83.8628 75.2932 81.8164 68.445 81.8164 57.0004C81.8164 42.6899 85.0268 35.5439 91.4662 35.5439Z" fill="#1C5771"/>
<path d="M87.9727 77.6011H104.268C104.7 77.843 105.17 78.0291 105.639 78.178H89.3432C88.8738 78.0291 88.4045 77.843 87.9727 77.6011Z" fill="#1C5771"/>
<path d="M89.3438 78.1777H105.64C106.109 78.308 106.616 78.4011 107.123 78.4383H90.8269C90.32 78.4011 89.8319 78.308 89.3438 78.1777Z" fill="#1C5771"/>
<path d="M90.8477 78.438H107.144C107.35 78.4566 107.557 78.4566 107.763 78.4566H91.4672C91.2607 78.4566 91.0542 78.4566 90.8477 78.438Z" fill="#1C5771"/>
<path d="M91.4648 12.6172H107.761C108.943 12.6172 110.126 12.6544 111.271 12.7475H94.9756C93.8304 12.6544 92.6664 12.6172 91.4648 12.6172Z" fill="#1C5771"/>
<path d="M94.9746 12.7471H111.27C114.03 12.9704 116.677 13.4356 119.174 14.1614H102.878C100.363 13.4356 97.7344 12.9518 94.9746 12.7471Z" fill="#1C5771"/>
<path d="M102.879 14.1616H119.175C121.709 14.906 124.112 15.9109 126.403 17.1949H110.107C107.816 15.9109 105.413 14.906 102.879 14.1616Z" fill="#1C5771"/>
<path d="M110.107 17.1948H126.403C126.798 17.4181 127.192 17.6414 127.586 17.8834C133.331 21.4005 137.818 26.4994 141.085 33.1615H124.789C121.522 26.4994 117.035 21.4005 111.29 17.8834C110.896 17.6414 110.502 17.4181 110.107 17.1948Z" fill="#1C5771"/>
<path d="M124.789 33.1616H141.085C144.351 39.8423 145.966 47.7885 145.966 57C145.966 66.2302 144.351 74.1763 141.085 80.8384C137.818 87.5191 133.331 92.618 127.586 96.1352C121.841 99.6523 115.233 101.402 107.761 101.402H91.4648C98.9369 101.402 105.545 99.6523 111.29 96.1352C117.035 92.618 121.522 87.5191 124.789 80.8384C128.055 74.1763 129.67 66.2302 129.67 57C129.651 47.7885 128.037 39.8423 124.789 33.1616Z" fill="#1C5771"/>
<g filter="url(#filter1_i_149_1318)">
<path d="M124.79 33.1618C128.057 39.8425 129.671 47.7886 129.671 57.0002C129.671 66.2304 128.057 74.1765 124.79 80.8386C121.523 87.5193 117.036 92.6182 111.291 96.1354C105.547 99.6525 98.9381 101.402 91.4661 101.402C83.994 101.402 77.3856 99.6525 71.6219 96.1354C65.8771 92.6182 61.3901 87.5193 58.1234 80.8386C54.8755 74.1765 53.2422 66.2304 53.2422 57.0002C53.2422 47.7886 54.8755 39.8425 58.1234 33.1618C61.3901 26.4997 65.8771 21.4008 71.6219 17.8836C77.3856 14.3665 83.994 12.5986 91.4661 12.5986C98.9381 12.5986 105.547 14.3479 111.291 17.8836C117.036 21.4008 121.523 26.4997 124.79 33.1618ZM91.4661 78.4566C97.8868 78.4566 101.097 71.3107 101.097 56.9816C101.097 42.6711 97.8868 35.5252 91.4661 35.5252C85.0266 35.5252 81.8162 42.6711 81.8162 56.9816C81.8162 71.3107 85.0266 78.4566 91.4661 78.4566Z" fill="#4A90AE"/>
</g>
<path d="M191.026 54.0967H174.73V74.7157H191.026V54.0967Z" fill="#1C5771"/>
<g filter="url(#filter2_i_149_1318)">
<path d="M174.731 54.0967H138.572V74.7157H174.731V54.0967Z" fill="#4A90AE"/>
</g>
<path d="M236.946 14.5522H220.65V99.4474H236.946V14.5522Z" fill="#1C5771"/>
<g filter="url(#filter3_i_149_1318)">
<path d="M220.651 14.5522V99.4474H192.208V36.1389H177.752V14.5522H220.651Z" fill="#4A90AE"/>
</g>
<path d="M237.754 72.6504H254.05C254.162 72.7062 254.275 72.7807 254.388 72.8365H238.092C237.979 72.7807 237.867 72.7248 237.754 72.6504Z" fill="#1C5771"/>
<path d="M238.092 72.8364H254.388C257.542 74.6043 260.846 75.9814 264.282 77.0049H247.986C244.55 76 241.227 74.6043 238.092 72.8364Z" fill="#1C5771"/>
<path d="M247.984 77.0049H264.28C264.581 77.0979 264.9 77.1724 265.2 77.2654C267.997 78.0284 270.757 78.5122 273.461 78.7169H257.165C254.461 78.5122 251.72 78.0284 248.904 77.2654C248.585 77.1724 248.285 77.0979 247.984 77.0049Z" fill="#1C5771"/>
<path d="M257.148 78.7168H273.444C274.496 78.7912 275.547 78.8471 276.58 78.8471H260.284C259.251 78.8285 258.2 78.7912 257.148 78.7168Z" fill="#1C5771"/>
<path d="M261.728 36.1392H278.023L277.423 44.4947H261.127L261.728 36.1392Z" fill="#1C5771"/>
<path d="M310.69 14.5522H294.395V36.1389H310.69V14.5522Z" fill="#1C5771"/>
<path d="M265.465 44.4941H281.761C283.732 44.4941 285.628 44.5686 287.43 44.6988H271.135C269.351 44.5686 267.455 44.4941 265.465 44.4941Z" fill="#1C5771"/>
<path d="M271.154 44.7178H287.45C291.111 44.9969 294.396 45.5738 297.344 46.4298H281.048C278.101 45.5738 274.815 44.9969 271.154 44.7178Z" fill="#1C5771"/>
<path d="M281.047 46.4297H297.343C299.708 47.1182 301.83 47.9929 303.726 49.0536H287.43C285.534 47.9929 283.412 47.1182 281.047 46.4297Z" fill="#1C5771"/>
<path d="M287.431 49.0537H303.726C305.247 49.9097 306.618 50.8774 307.838 51.9754C313.433 56.944 316.23 63.4758 316.23 71.5522C316.23 76.8931 314.841 81.8059 312.062 86.2907C309.284 90.7756 305.003 94.423 299.239 97.2143C293.457 100.006 286.267 101.401 277.649 101.401H261.354C269.952 101.401 277.142 100.006 282.944 97.2143C288.726 94.423 292.988 90.7756 295.766 86.2907C298.526 81.8059 299.934 76.8931 299.934 71.5522C299.934 63.4758 297.137 56.944 291.542 51.9754C290.322 50.8774 288.951 49.9097 287.431 49.0537Z" fill="#1C5771"/>
<g filter="url(#filter4_i_149_1318)">
<path d="M294.395 14.5522V36.1389H261.728L261.127 44.4945H265.464C277.254 44.4945 285.965 46.9881 291.541 51.9568C297.136 56.9254 299.933 63.4572 299.933 71.5336C299.933 76.8745 298.544 81.7873 295.765 86.2721C292.986 90.757 288.706 94.4044 282.942 97.1957C277.16 99.9871 269.97 101.383 261.352 101.383C255.42 101.383 249.487 100.731 243.573 99.4475C237.659 98.1634 232.515 96.2467 228.104 93.753L237.735 72.6502C241.264 74.66 244.981 76.2046 248.886 77.2653C252.773 78.326 256.565 78.8471 260.263 78.8471C263.549 78.8471 266.233 78.2516 268.28 77.0978C270.326 75.9254 271.34 74.2878 271.34 72.185C271.34 70.1566 270.42 68.6306 268.58 67.6257C266.74 66.6208 263.38 66.1184 258.574 66.1184H234.111L238.317 14.5709L294.395 14.5522Z" fill="#4A90AE"/>
</g>
<path d="M312.812 71.7944H329.108C329.371 71.9433 329.615 72.0922 329.878 72.241H313.582C313.319 72.0922 313.075 71.9433 312.812 71.7944Z" fill="#1C5771"/>
<path d="M313.582 72.2412H329.878C333.558 74.3068 337.631 75.9817 342.118 77.3029H325.823C321.336 75.9817 317.262 74.3068 313.582 72.2412Z" fill="#1C5771"/>
<path d="M325.822 77.3027H342.118C342.287 77.3586 342.456 77.3958 342.625 77.4516C346.305 78.4937 349.891 79.1451 353.345 79.4242H337.049C333.576 79.1451 330.009 78.4937 326.329 77.4516C326.16 77.3958 325.991 77.34 325.822 77.3027Z" fill="#1C5771"/>
<path d="M337.051 79.4053H353.347C354.567 79.4983 355.768 79.5541 356.951 79.5541H340.655C339.473 79.5541 338.271 79.4983 337.051 79.4053Z" fill="#1C5771"/>
<path d="M367.913 100.545H351.617V114.018H367.913V100.545Z" fill="#1C5771"/>
<path d="M367.913 0H351.617V12.9706H367.913V0Z" fill="#1C5771"/>
<path d="M376.08 20.0234H392.376L383.834 40.7541H367.52L376.08 20.0234Z" fill="#1C5771"/>
<path d="M351.617 12.9707H367.913C372.851 13.4173 377.375 14.2547 381.524 15.4643H365.228C361.079 14.2734 356.555 13.4359 351.617 12.9707Z" fill="#1C5771"/>
<path d="M365.229 15.4829H381.524C385.354 16.5995 388.865 18.051 392.019 19.8189H375.723C372.569 18.051 369.058 16.5995 365.229 15.4829Z" fill="#1C5771"/>
<path d="M375.742 19.8188H392.038C392.151 19.8747 392.263 19.9491 392.376 20.0049H376.08C375.967 19.9491 375.855 19.8933 375.742 19.8188Z" fill="#1C5771"/>
<path d="M344.034 34.4272H360.33C353.027 34.4272 349.366 36.2137 349.366 39.7681C349.366 41.1638 350.098 42.2617 351.581 43.0991H335.286C333.802 42.2803 333.07 41.1638 333.07 39.7681C333.07 36.2323 336.731 34.4272 344.034 34.4272Z" fill="#1C5771"/>
<path d="M335.268 43.0991H351.563C351.883 43.2852 352.239 43.4341 352.615 43.583C353.272 43.8435 354.079 44.104 354.999 44.3832H338.703C337.765 44.104 336.976 43.8435 336.319 43.583C335.943 43.4527 335.587 43.2852 335.268 43.0991Z" fill="#1C5771"/>
<path d="M338.721 44.4019H355.017C357.119 45.016 359.898 45.6487 363.333 46.3372C367.82 47.1746 371.838 48.1237 375.349 49.1472H359.053C355.542 48.1237 351.525 47.1746 347.038 46.3372C343.602 45.6487 340.823 45.016 338.721 44.4019Z" fill="#1C5771"/>
<path d="M359.053 49.1475H375.349C376.85 49.5941 378.277 50.0407 379.61 50.5245C381.112 51.0642 382.539 51.7155 383.91 52.4785H367.614C366.243 51.7155 364.816 51.0642 363.314 50.5245C361.981 50.0407 360.573 49.5755 359.053 49.1475Z" fill="#1C5771"/>
<path d="M367.615 52.4595H383.91C386.558 53.9482 388.961 55.865 391.101 58.2097C394.368 61.7641 396.001 66.6211 396.001 72.7621C396.001 79.5545 393.56 85.4722 388.698 90.5339C383.835 95.577 376.908 98.9267 367.915 100.527H351.619C360.631 98.9267 367.539 95.577 372.402 90.5339C377.264 85.4722 379.705 79.5545 379.705 72.7621C379.705 66.6211 378.072 61.7641 374.805 58.2097C372.684 55.865 370.28 53.9482 367.615 52.4595Z" fill="#1C5771"/>
<g filter="url(#filter5_i_149_1318)">
<path d="M351.619 0V12.9706C361.268 13.8639 369.416 16.2086 376.081 20.0049L367.52 40.7356C359.241 36.5299 351.412 34.427 344.034 34.427C336.731 34.427 333.07 36.2135 333.07 39.7679C333.07 41.4613 334.159 42.7267 336.337 43.5828C338.496 44.4388 342.081 45.332 347.057 46.3183C353.477 47.5279 358.903 48.9236 363.334 50.5054C367.746 52.0872 371.594 54.6366 374.823 58.2096C378.09 61.764 379.723 66.621 379.723 72.762C379.723 79.5544 377.283 85.4721 372.42 90.5338C367.558 95.5769 360.63 98.9265 351.637 100.527V114H334.647V101.141C328.621 100.825 322.857 99.8942 317.356 98.3683C311.855 96.8237 307.293 94.9256 303.67 92.6552L312.813 71.7943C316.83 74.1391 321.336 76.0186 326.33 77.4329C331.305 78.8472 336.074 79.5358 340.655 79.5358C344.597 79.5358 347.413 79.145 349.084 78.4006C350.774 77.6376 351.619 76.4652 351.619 74.9393C351.619 73.1714 350.53 71.8315 348.314 70.9383C346.099 70.0451 342.476 69.0774 337.407 68.0166C330.892 66.6396 325.485 65.1694 321.13 63.5877C316.793 62.0059 313.001 59.4192 309.79 55.8276C306.58 52.236 304.984 47.3604 304.984 41.2008C304.984 34.0735 307.537 27.9882 312.644 22.8707C317.732 17.7718 325.072 14.5524 334.628 13.1753V0H351.619Z" fill="#4A90AE"/>
</g>
</g>
<defs>
<filter id="filter0_i_149_1318" x="0" y="14.5522" width="43.8984" height="85.895" filterUnits="userSpaceOnUse" color-interpolation-filters="sRGB">
<feFlood flood-opacity="0" result="BackgroundImageFix"/>
<feBlend mode="normal" in="SourceGraphic" in2="BackgroundImageFix" result="shape"/>
<feColorMatrix in="SourceAlpha" type="matrix" values="0 0 0 0 0 0 0 0 0 0 0 0 0 0 0 0 0 0 127 0" result="hardAlpha"/>
<feOffset dx="2" dy="2"/>
<feGaussianBlur stdDeviation="0.5"/>
<feComposite in2="hardAlpha" operator="arithmetic" k2="-1" k3="1"/>
<feColorMatrix type="matrix" values="0 0 0 0 0.635 0 0 0 0 0.714126 0 0 0 0 1 0 0 0 1 0"/>
<feBlend mode="normal" in2="shape" result="effect1_innerShadow_149_1318"/>
</filter>
<filter id="filter1_i_149_1318" x="53.2422" y="12.5986" width="77.4297" height="89.8032" filterUnits="userSpaceOnUse" color-interpolation-filters="sRGB">
<feFlood flood-opacity="0" result="BackgroundImageFix"/>
<feBlend mode="normal" in="SourceGraphic" in2="BackgroundImageFix" result="shape"/>
<feColorMatrix in="SourceAlpha" type="matrix" values="0 0 0 0 0 0 0 0 0 0 0 0 0 0 0 0 0 0 127 0" result="hardAlpha"/>
<feOffset dx="2" dy="2"/>
<feGaussianBlur stdDeviation="0.5"/>
<feComposite in2="hardAlpha" operator="arithmetic" k2="-1" k3="1"/>
<feColorMatrix type="matrix" values="0 0 0 0 0.635 0 0 0 0 0.714126 0 0 0 0 1 0 0 0 1 0"/>
<feBlend mode="normal" in2="shape" result="effect1_innerShadow_149_1318"/>
</filter>
<filter id="filter2_i_149_1318" x="138.572" y="54.0967" width="37.1582" height="21.6191" filterUnits="userSpaceOnUse" color-interpolation-filters="sRGB">
<feFlood flood-opacity="0" result="BackgroundImageFix"/>
<feBlend mode="normal" in="SourceGraphic" in2="BackgroundImageFix" result="shape"/>
<feColorMatrix in="SourceAlpha" type="matrix" values="0 0 0 0 0 0 0 0 0 0 0 0 0 0 0 0 0 0 127 0" result="hardAlpha"/>
<feOffset dx="2" dy="2"/>
<feGaussianBlur stdDeviation="0.5"/>
<feComposite in2="hardAlpha" operator="arithmetic" k2="-1" k3="1"/>
<feColorMatrix type="matrix" values="0 0 0 0 0.635 0 0 0 0 0.714126 0 0 0 0 1 0 0 0 1 0"/>
<feBlend mode="normal" in2="shape" result="effect1_innerShadow_149_1318"/>
</filter>
<filter id="filter3_i_149_1318" x="177.752" y="14.5522" width="43.8984" height="85.895" filterUnits="userSpaceOnUse" color-interpolation-filters="sRGB">
<feFlood flood-opacity="0" result="BackgroundImageFix"/>
<feBlend mode="normal" in="SourceGraphic" in2="BackgroundImageFix" result="shape"/>
<feColorMatrix in="SourceAlpha" type="matrix" values="0 0 0 0 0 0 0 0 0 0 0 0 0 0 0 0 0 0 127 0" result="hardAlpha"/>
<feOffset dx="2" dy="2"/>
<feGaussianBlur stdDeviation="0.5"/>
<feComposite in2="hardAlpha" operator="arithmetic" k2="-1" k3="1"/>
<feColorMatrix type="matrix" values="0 0 0 0 0.635 0 0 0 0 0.714126 0 0 0 0 1 0 0 0 1 0"/>
<feBlend mode="normal" in2="shape" result="effect1_innerShadow_149_1318"/>
</filter>
<filter id="filter4_i_149_1318" x="228.104" y="14.5522" width="72.8301" height="87.8306" filterUnits="userSpaceOnUse" color-interpolation-filters="sRGB">
<feFlood flood-opacity="0" result="BackgroundImageFix"/>
<feBlend mode="normal" in="SourceGraphic" in2="BackgroundImageFix" result="shape"/>
<feColorMatrix in="SourceAlpha" type="matrix" values="0 0 0 0 0 0 0 0 0 0 0 0 0 0 0 0 0 0 127 0" result="hardAlpha"/>
<feOffset dx="2" dy="2"/>
<feGaussianBlur stdDeviation="0.5"/>
<feComposite in2="hardAlpha" operator="arithmetic" k2="-1" k3="1"/>
<feColorMatrix type="matrix" values="0 0 0 0 0.635 0 0 0 0 0.714126 0 0 0 0 1 0 0 0 1 0"/>
<feBlend mode="normal" in2="shape" result="effect1_innerShadow_149_1318"/>
</filter>
<filter id="filter5_i_149_1318" x="303.67" y="0" width="77.0527" height="115" filterUnits="userSpaceOnUse" color-interpolation-filters="sRGB">
<feFlood flood-opacity="0" result="BackgroundImageFix"/>
<feBlend mode="normal" in="SourceGraphic" in2="BackgroundImageFix" result="shape"/>
<feColorMatrix in="SourceAlpha" type="matrix" values="0 0 0 0 0 0 0 0 0 0 0 0 0 0 0 0 0 0 127 0" result="hardAlpha"/>
<feOffset dx="2" dy="2"/>
<feGaussianBlur stdDeviation="0.5"/>
<feComposite in2="hardAlpha" operator="arithmetic" k2="-1" k3="1"/>
<feColorMatrix type="matrix" values="0 0 0 0 0.635 0 0 0 0 0.714126 0 0 0 0 1 0 0 0 1 0"/>
<feBlend mode="normal" in2="shape" result="effect1_innerShadow_149_1318"/>
</filter>
<clipPath id="clip0_149_1318">
<rect width="396" height="114" fill="white"/>
</clipPath>
</defs>
</svg>
