<svg width="408" height="99" viewBox="0 0 408 99" fill="none" xmlns="http://www.w3.org/2000/svg">
<path d="M34.6293 22.8579H51.291C48.6804 22.8579 46.2042 23.5557 43.9007 24.9513C41.5972 26.3469 39.8313 28.3083 38.5835 30.8544H21.9219C23.1696 28.3083 24.9356 26.3469 27.239 24.9513C29.5425 23.5557 31.9995 22.8579 34.6293 22.8579Z" fill="#1C5771"/>
<path d="M57.4137 54.3345H74.0946L61.7711 65.5182H45.1094L57.4137 54.3345Z" fill="#1C5771"/>
<path d="M37.334 0H53.9957C55.5313 0 57.0285 0.0565786 58.4874 0.169736H41.8257C40.3669 0.0565786 38.8696 0 37.334 0Z" fill="#1C5771"/>
<path d="M41.8262 0.169434H58.4878C61.8087 0.433467 64.9375 0.980394 67.836 1.82907H51.1744C48.2759 0.980394 45.147 0.433467 41.8262 0.169434Z" fill="#1C5771"/>
<path d="M51.1953 1.81055H67.857C69.335 2.24432 70.7555 2.73466 72.1184 3.31931C73.2893 3.80966 74.4218 4.35658 75.4776 4.94123H58.8159C57.7602 4.35658 56.6276 3.80966 55.4567 3.31931C54.0746 2.75352 52.6542 2.24432 51.1953 1.81055Z" fill="#1C5771"/>
<path d="M58.8137 4.95996H75.4754C79.1609 6.99679 82.1554 9.61827 84.4397 12.7867C87.3958 16.898 88.8738 21.5941 88.8738 26.9313C88.8738 31.6839 87.8757 36.1348 85.8602 40.265C83.8446 44.4141 79.9287 49.0913 74.0933 54.3342H57.4316C63.2671 49.0913 67.1829 44.4141 69.1985 40.265C71.214 36.1159 72.2122 31.6839 72.2122 26.9313C72.2122 21.5941 70.7341 16.898 67.778 12.7867C65.4746 9.59941 62.4801 6.99679 58.8137 4.95996Z" fill="#1C5771"/>
<path d="M90.8355 65.5186H74.1738V88.018H90.8355V65.5186Z" fill="#1C5771"/>
<g filter="url(#filter0_i_149_1413)">
<path d="M37.3352 0C44.1496 0 50.177 1.09385 55.4366 3.31928C60.6961 5.52584 64.804 8.67539 67.7601 12.7679C70.7162 16.8793 72.1942 21.5753 72.1942 26.9126C72.1942 31.6652 71.1961 36.116 69.1805 40.2463C67.165 44.3954 63.2491 49.0725 57.4137 54.3155L45.0902 65.4992H74.1713V87.9986H5.04841V70.1763L36.2219 41.4155C38.9476 38.8695 40.752 36.7007 41.6542 34.8901C42.5564 33.0985 43.0171 31.3257 43.0171 29.5906C43.0171 27.4595 42.2877 25.7998 40.848 24.6117C39.4083 23.4235 37.3352 22.82 34.6287 22.82C32.0181 22.82 29.5418 23.5178 27.2384 24.9135C24.9349 26.3091 23.1689 28.2704 21.9212 30.8165L0 19.9157C3.28243 13.7675 8.10049 8.92056 14.435 5.33725C20.7311 1.79166 28.3709 0 37.3352 0Z" fill="#4A90AE"/>
</g>
<path d="M137.669 1.96143H121.008V87.9986H137.669V1.96143Z" fill="#1C5771"/>
<g filter="url(#filter1_i_149_1413)">
<path d="M121.008 1.96143V88.0175H91.927V23.8385H77.1465V1.96143H121.008Z" fill="#4A90AE"/>
</g>
<path d="M180.709 83.6797H164.047V93.4112H180.709V83.6797Z" fill="#1C5771"/>
<path d="M172.993 53.3159H189.654C189.52 57.1067 189.271 60.0865 188.867 62.2742C188.484 64.4619 187.716 66.2724 186.564 67.7246H169.902C171.035 66.2724 171.803 64.4619 172.206 62.2742C172.59 60.0865 172.858 57.1067 172.993 53.3159Z" fill="#1C5771"/>
<path d="M173.069 50.2417H189.731L189.654 53.3158H172.992L173.069 50.2417Z" fill="#1C5771"/>
<path d="M220.251 34.3809H203.59V67.7245H220.251V34.3809Z" fill="#1C5771"/>
<g filter="url(#filter2_i_149_1413)">
<path d="M203.59 67.7252H210.174V93.4119H191.304V83.6804H164.047V93.4119H145.178V67.7252H146.617C149.497 67.7252 151.512 66.3673 152.664 63.6327C153.797 60.8981 154.468 56.9375 154.66 51.7889L155.294 34.4004H203.609V67.7252H203.59ZM183.281 67.7252V50.2424H173.069L172.992 53.3165C172.858 57.1073 172.608 60.0871 172.205 62.2748C171.821 64.4625 171.053 66.273 169.902 67.7252H183.281Z" fill="#4A90AE"/>
</g>
<path d="M226.834 67.7246H210.172V93.4113H226.834V67.7246Z" fill="#1C5771"/>
<path d="M241.076 47.375H257.738C255.626 47.375 253.879 47.9408 252.497 49.0912C251.096 50.2228 250.194 51.8447 249.791 53.9381H233.129C233.532 51.8259 234.434 50.2228 235.835 49.0912C237.218 47.9408 238.964 47.375 241.076 47.375Z" fill="#1C5771"/>
<path d="M233.496 63.7642H250.158C250.868 65.6124 252.077 67.0646 253.766 68.0453C253.824 68.083 253.882 68.1207 253.939 68.1396H237.278C237.22 68.1018 237.162 68.0641 237.105 68.0453C235.416 67.0646 234.206 65.6124 233.496 63.7642Z" fill="#1C5771"/>
<path d="M237.277 68.1392H253.939C254.572 68.4975 255.264 68.7804 256.012 68.9879H239.35C238.583 68.7804 237.892 68.4975 237.277 68.1392Z" fill="#1C5771"/>
<path d="M239.33 68.9883H255.992C256.817 69.2335 257.719 69.3843 258.698 69.4598H242.037C241.077 69.4032 240.175 69.2335 239.33 68.9883Z" fill="#1C5771"/>
<path d="M242.059 69.4785H258.72C259.162 69.5162 259.623 69.5351 260.102 69.5351H243.441C242.961 69.5162 242.5 69.4974 242.059 69.4785Z" fill="#1C5771"/>
<path d="M264.363 76.645H281.025C276.206 81.9257 269.008 84.566 259.449 84.566H242.787C252.346 84.5849 259.545 81.9257 264.363 76.645Z" fill="#1C5771"/>
<path d="M253.709 65.9326H270.39L281.024 76.6448H264.362L253.709 65.9326Z" fill="#1C5771"/>
<path d="M268.066 58.9736H284.727C284.727 59.2754 284.651 60.8784 284.459 63.7639H267.797C267.989 60.8784 268.066 59.2942 268.066 58.9736Z" fill="#1C5771"/>
<path d="M240.887 33.4941H257.548C258.489 33.4941 259.41 33.5319 260.313 33.6073H243.651C242.749 33.5319 241.827 33.4941 240.887 33.4941Z" fill="#1C5771"/>
<path d="M243.65 33.5879H260.312C262.539 33.7576 264.689 34.1348 266.723 34.7383H250.062C248.008 34.1537 245.877 33.7576 243.65 33.5879Z" fill="#1C5771"/>
<path d="M250.061 34.7388H266.722C268.277 35.1914 269.774 35.7572 271.233 36.455C271.694 36.6624 272.116 36.9076 272.558 37.1339H255.896C255.474 36.8888 255.032 36.6624 254.571 36.455C253.113 35.7572 251.615 35.1914 250.061 34.7388Z" fill="#1C5771"/>
<path d="M255.898 37.1343H272.56C276.073 39.0768 278.914 41.7737 281.083 45.1873C283.521 49.0346 284.749 53.6175 284.749 58.9736H268.088C268.088 53.6364 266.859 49.0535 264.421 45.1873C262.252 41.7926 259.411 39.0957 255.898 37.1343Z" fill="#1C5771"/>
<g filter="url(#filter3_i_149_1413)">
<path d="M268.067 58.9737C268.067 59.2754 267.99 60.8785 267.798 63.764H233.476C234.187 65.6122 235.396 67.0644 237.085 68.0451C238.774 69.0258 240.886 69.5162 243.42 69.5162C245.589 69.5162 247.393 69.271 248.89 68.7241C250.368 68.1771 251.962 67.253 253.728 65.914L264.381 76.6451C259.563 81.9257 252.365 84.5661 242.805 84.5661C236.836 84.5661 231.595 83.4722 227.084 81.2657C222.573 79.078 219.08 76.0227 216.603 72.1188C214.127 68.2149 212.918 63.8394 212.918 58.9737C212.918 54.0513 214.127 49.6571 216.584 45.7909C219.022 41.9058 222.343 38.9071 226.604 36.7194C230.847 34.5694 235.626 33.4756 240.905 33.4756C245.915 33.4756 250.464 34.4751 254.591 36.4554C258.718 38.4356 262.001 41.3589 264.439 45.1874C266.857 49.0536 268.067 53.6364 268.067 58.9737ZM233.131 53.9382H249.025C248.602 51.9014 247.7 50.2794 246.318 49.1101C244.917 47.9409 243.189 47.3562 241.078 47.3562C238.966 47.3562 237.219 47.922 235.837 49.0724C234.436 50.2229 233.534 51.8448 233.131 53.9382Z" fill="#4A90AE"/>
</g>
<path d="M312.371 67.6299H295.709V83.6793H312.371V67.6299Z" fill="#1C5771"/>
<path d="M312.371 34.3809H295.709V51.6751H312.371V34.3809Z" fill="#1C5771"/>
<path d="M295.709 51.6937L312.371 51.6748H326.287L309.626 51.6937H295.709Z" fill="#1C5771"/>
<path d="M346.597 34.3809H329.936V83.6797H346.597V34.3809Z" fill="#1C5771"/>
<g filter="url(#filter4_i_149_1413)">
<path d="M329.935 34.3809V83.6797H309.626V67.6302H295.709V83.6797H275.4V34.3809H295.709V51.6939H309.626V34.3809H329.935Z" fill="#4A90AE"/>
</g>
<path d="M376.484 61.1616H359.822V69.9879H376.484V61.1616Z" fill="#1C5771"/>
<path d="M376.484 34.3809H359.822V49.2422H376.484V34.3809Z" fill="#1C5771"/>
<path d="M370.744 49.2612H387.406C388.481 49.2612 389.536 49.2989 390.535 49.3744H373.873C372.875 49.2989 371.838 49.2612 370.744 49.2612Z" fill="#1C5771"/>
<path d="M373.875 49.3745H390.537C392.648 49.5442 394.568 49.8649 396.315 50.3741H379.653C377.925 49.8649 375.987 49.5442 373.875 49.3745Z" fill="#1C5771"/>
<path d="M379.67 50.374H396.332C397.81 50.8078 399.153 51.3547 400.382 52.0337H383.72C382.492 51.3547 381.148 50.8078 379.67 50.374Z" fill="#1C5771"/>
<path d="M383.701 52.0337H400.363C401.188 52.4863 401.956 53.0144 402.666 53.5802H386.005C385.294 53.0144 384.527 52.4863 383.701 52.0337Z" fill="#1C5771"/>
<path d="M386.005 53.5801H402.667C406.218 56.4656 407.984 60.5392 407.984 65.8388C407.984 71.3458 405.93 75.7212 401.803 78.8896C397.676 82.0768 392.033 83.6799 384.873 83.6799H368.211C375.371 83.6799 381.014 82.0768 385.141 78.8896C389.249 75.7212 391.322 71.3458 391.322 65.8388C391.341 60.5392 389.575 56.4656 386.005 53.5801Z" fill="#1C5771"/>
<g filter="url(#filter5_i_149_1413)">
<path d="M386.005 53.5799C389.556 56.4654 391.322 60.539 391.322 65.8386C391.322 71.3456 389.268 75.721 385.141 78.8894C381.014 82.0766 375.371 83.6797 368.211 83.6797H339.494V34.3809H359.803V49.2422H370.725C377.367 49.261 382.454 50.6944 386.005 53.5799ZM366.138 69.9877C369.094 69.9877 370.572 68.4978 370.572 65.4802C370.572 62.5947 369.094 61.1614 366.138 61.1614H359.822V69.9877H366.138Z" fill="#4A90AE"/>
</g>
<defs>
<filter id="filter0_i_149_1413" x="0" y="0" width="75.1719" height="88.9985" filterUnits="userSpaceOnUse" color-interpolation-filters="sRGB">
<feFlood flood-opacity="0" result="BackgroundImageFix"/>
<feBlend mode="normal" in="SourceGraphic" in2="BackgroundImageFix" result="shape"/>
<feColorMatrix in="SourceAlpha" type="matrix" values="0 0 0 0 0 0 0 0 0 0 0 0 0 0 0 0 0 0 127 0" result="hardAlpha"/>
<feOffset dx="2" dy="2"/>
<feGaussianBlur stdDeviation="0.5"/>
<feComposite in2="hardAlpha" operator="arithmetic" k2="-1" k3="1"/>
<feColorMatrix type="matrix" values="0 0 0 0 0.635 0 0 0 0 0.714126 0 0 0 0 1 0 0 0 1 0"/>
<feBlend mode="normal" in2="shape" result="effect1_innerShadow_149_1413"/>
</filter>
<filter id="filter1_i_149_1413" x="77.1465" y="1.96143" width="44.8613" height="87.0562" filterUnits="userSpaceOnUse" color-interpolation-filters="sRGB">
<feFlood flood-opacity="0" result="BackgroundImageFix"/>
<feBlend mode="normal" in="SourceGraphic" in2="BackgroundImageFix" result="shape"/>
<feColorMatrix in="SourceAlpha" type="matrix" values="0 0 0 0 0 0 0 0 0 0 0 0 0 0 0 0 0 0 127 0" result="hardAlpha"/>
<feOffset dx="2" dy="2"/>
<feGaussianBlur stdDeviation="0.5"/>
<feComposite in2="hardAlpha" operator="arithmetic" k2="-1" k3="1"/>
<feColorMatrix type="matrix" values="0 0 0 0 0.635 0 0 0 0 0.714126 0 0 0 0 1 0 0 0 1 0"/>
<feBlend mode="normal" in2="shape" result="effect1_innerShadow_149_1413"/>
</filter>
<filter id="filter2_i_149_1413" x="145.178" y="34.4004" width="65.9961" height="60.0117" filterUnits="userSpaceOnUse" color-interpolation-filters="sRGB">
<feFlood flood-opacity="0" result="BackgroundImageFix"/>
<feBlend mode="normal" in="SourceGraphic" in2="BackgroundImageFix" result="shape"/>
<feColorMatrix in="SourceAlpha" type="matrix" values="0 0 0 0 0 0 0 0 0 0 0 0 0 0 0 0 0 0 127 0" result="hardAlpha"/>
<feOffset dx="2" dy="2"/>
<feGaussianBlur stdDeviation="0.5"/>
<feComposite in2="hardAlpha" operator="arithmetic" k2="-1" k3="1"/>
<feColorMatrix type="matrix" values="0 0 0 0 0.635 0 0 0 0 0.714126 0 0 0 0 1 0 0 0 1 0"/>
<feBlend mode="normal" in2="shape" result="effect1_innerShadow_149_1413"/>
</filter>
<filter id="filter3_i_149_1413" x="212.918" y="33.4756" width="56.1484" height="52.0903" filterUnits="userSpaceOnUse" color-interpolation-filters="sRGB">
<feFlood flood-opacity="0" result="BackgroundImageFix"/>
<feBlend mode="normal" in="SourceGraphic" in2="BackgroundImageFix" result="shape"/>
<feColorMatrix in="SourceAlpha" type="matrix" values="0 0 0 0 0 0 0 0 0 0 0 0 0 0 0 0 0 0 127 0" result="hardAlpha"/>
<feOffset dx="2" dy="2"/>
<feGaussianBlur stdDeviation="0.5"/>
<feComposite in2="hardAlpha" operator="arithmetic" k2="-1" k3="1"/>
<feColorMatrix type="matrix" values="0 0 0 0 0.635 0 0 0 0 0.714126 0 0 0 0 1 0 0 0 1 0"/>
<feBlend mode="normal" in2="shape" result="effect1_innerShadow_149_1413"/>
</filter>
<filter id="filter4_i_149_1413" x="275.4" y="34.3809" width="55.5352" height="50.2988" filterUnits="userSpaceOnUse" color-interpolation-filters="sRGB">
<feFlood flood-opacity="0" result="BackgroundImageFix"/>
<feBlend mode="normal" in="SourceGraphic" in2="BackgroundImageFix" result="shape"/>
<feColorMatrix in="SourceAlpha" type="matrix" values="0 0 0 0 0 0 0 0 0 0 0 0 0 0 0 0 0 0 127 0" result="hardAlpha"/>
<feOffset dx="2" dy="2"/>
<feGaussianBlur stdDeviation="0.5"/>
<feComposite in2="hardAlpha" operator="arithmetic" k2="-1" k3="1"/>
<feColorMatrix type="matrix" values="0 0 0 0 0.635 0 0 0 0 0.714126 0 0 0 0 1 0 0 0 1 0"/>
<feBlend mode="normal" in2="shape" result="effect1_innerShadow_149_1413"/>
</filter>
<filter id="filter5_i_149_1413" x="339.494" y="34.3809" width="52.8281" height="50.2988" filterUnits="userSpaceOnUse" color-interpolation-filters="sRGB">
<feFlood flood-opacity="0" result="BackgroundImageFix"/>
<feBlend mode="normal" in="SourceGraphic" in2="BackgroundImageFix" result="shape"/>
<feColorMatrix in="SourceAlpha" type="matrix" values="0 0 0 0 0 0 0 0 0 0 0 0 0 0 0 0 0 0 127 0" result="hardAlpha"/>
<feOffset dx="2" dy="2"/>
<feGaussianBlur stdDeviation="0.5"/>
<feComposite in2="hardAlpha" operator="arithmetic" k2="-1" k3="1"/>
<feColorMatrix type="matrix" values="0 0 0 0 0.635 0 0 0 0 0.714126 0 0 0 0 1 0 0 0 1 0"/>
<feBlend mode="normal" in2="shape" result="effect1_innerShadow_149_1413"/>
</filter>
</defs>
</svg>
