<svg width="42" height="42" viewBox="0 0 42 42" fill="none" xmlns="http://www.w3.org/2000/svg">
<g clip-path="url(#clip0_1_691)">
<path d="M31.2376 0.303512L25.884 0.294922C19.8694 0.294922 15.9824 4.2828 15.9824 10.4551V15.1396H10.5996C10.1345 15.1396 9.75781 15.5167 9.75781 15.9819V22.7692C9.75781 23.2344 10.1349 23.611 10.5996 23.611H15.9824V40.7376C15.9824 41.2028 16.3591 41.5795 16.8243 41.5795H23.8473C24.3125 41.5795 24.6891 41.2024 24.6891 40.7376V23.611H30.9829C31.448 23.611 31.8247 23.2344 31.8247 22.7692L31.8273 15.9819C31.8273 15.7585 31.7384 15.5446 31.5808 15.3866C31.4231 15.2285 31.2084 15.1396 30.985 15.1396H24.6891V11.1685C24.6891 9.25981 25.1439 8.29087 27.6303 8.29087L31.2367 8.28958C31.7014 8.28958 32.0781 7.91248 32.0781 7.44776V1.14533C32.0781 0.68104 31.7019 0.304371 31.2376 0.303512Z" fill="white"/>
</g>
<defs>
<clipPath id="clip0_1_691">
<rect width="41.2845" height="41.2845" fill="white" transform="translate(0.274414 0.294922)"/>
</clipPath>
</defs>
</svg>
