<svg width="87" height="67" viewBox="0 0 87 67" fill="none" xmlns="http://www.w3.org/2000/svg">
<path d="M72.8499 66.0086C72.0513 66.7717 70.7853 66.7428 70.0223 65.9442L57.5878 52.9294C56.8247 52.1308 56.8536 50.8648 57.6522 50.1017C58.4509 49.3387 59.7169 49.3676 60.4799 50.1662L71.5328 61.7349L83.1015 50.682C83.9001 49.9189 85.1661 49.9478 85.9292 50.7464C86.6922 51.5451 86.6633 52.8111 85.8647 53.5741L72.8499 66.0086ZM69.4689 64.517C69.4979 63.2444 69.4976 61.9982 69.4691 60.7781L73.468 60.6849C73.4979 61.9678 73.4982 63.2754 73.4678 64.6081L69.4689 64.517ZM68.9223 53.3805C68.5976 50.8391 68.1391 48.4268 67.5609 46.1376L71.439 45.1579C72.0579 47.6077 72.5456 50.178 72.89 52.8736L68.9223 53.3805ZM65.2913 39.1572C64.3478 36.821 63.2644 34.6349 62.0604 32.5898L65.5075 30.5606C66.8118 32.7761 67.9828 35.1399 69.0002 37.6594L65.2913 39.1572ZM57.8827 26.5921C56.3171 24.6747 54.6296 22.91 52.8439 21.2876L55.5336 18.327C57.4599 20.0771 59.2849 21.9851 60.981 24.0622L57.8827 26.5921ZM47.0792 16.744C45.0385 15.3486 42.9174 14.0958 40.7429 12.9749L42.5756 9.41947C44.8871 10.611 47.1512 11.9475 49.337 13.4421L47.0792 16.744ZM33.9866 9.95893C31.6489 9.06294 29.2858 8.29793 26.9287 7.65146L27.9867 3.79391C30.462 4.47279 32.9502 5.27797 35.4181 6.22388L33.9866 9.95893ZM19.6708 6.01269C17.1454 5.55971 14.6696 5.23362 12.2853 5.01734L12.6467 1.0337C15.1424 1.26009 17.7334 1.60134 20.377 2.07553L19.6708 6.01269ZM4.85373 4.6794C3.56883 4.68136 2.33595 4.71637 1.16427 4.78037L0.946079 0.78633C2.19066 0.718341 3.49431 0.681467 4.84762 0.679399L4.85373 4.6794Z" fill="#828282"/>
</svg>
