<svg width="155" height="140" viewBox="0 0 155 140" fill="none" xmlns="http://www.w3.org/2000/svg">
<path d="M153.955 125.04C154.677 124.204 154.583 122.941 153.747 122.219L140.118 110.461C139.282 109.74 138.019 109.833 137.297 110.669C136.576 111.506 136.669 112.769 137.505 113.49L149.62 123.941L139.168 136.056C138.447 136.893 138.54 138.156 139.376 138.877C140.213 139.599 141.476 139.505 142.197 138.669L153.955 125.04ZM152.294 121.739C150.902 121.842 149.522 121.928 148.155 121.998L148.36 125.993C149.758 125.921 151.167 125.833 152.588 125.728L152.294 121.739ZM139.985 122.232C137.211 122.247 134.491 122.194 131.821 122.077L131.645 126.073C134.381 126.193 137.168 126.247 140.006 126.232L139.985 122.232ZM123.68 121.507C120.923 121.24 118.225 120.902 115.584 120.496L114.977 124.45C117.692 124.867 120.464 125.214 123.295 125.488L123.68 121.507ZM107.56 119.023C104.856 118.443 102.217 117.79 99.6411 117.068L98.5621 120.92C101.218 121.664 103.937 122.337 106.721 122.934L107.56 119.023ZM91.8643 114.619C89.2631 113.707 86.7313 112.722 84.2673 111.669L82.6965 115.348C85.2414 116.435 87.8555 117.452 90.5401 118.394L91.8643 114.619ZM76.8881 108.22C74.4403 106.974 72.0657 105.659 69.7624 104.282L67.7094 107.715C70.0896 109.138 72.5436 110.497 75.0729 111.785L76.8881 108.22ZM62.9229 99.8696C60.6729 98.3079 58.4983 96.685 56.3973 95.0078L53.9018 98.1339C56.0713 99.8658 58.3175 101.542 60.6421 103.156L62.9229 99.8696ZM50.2066 89.7232C48.1808 87.8763 46.232 85.9784 44.3581 84.0372L41.4802 86.8153C43.4117 88.8162 45.4215 90.7736 47.5117 92.6791L50.2066 89.7232ZM38.878 77.9961C37.0998 75.9109 35.3992 73.7879 33.7739 71.6355L30.5817 74.0459C32.2534 76.2597 34.0035 78.4445 35.8344 80.5916L38.878 77.9961ZM29.0456 64.9849C27.5154 62.6979 26.0639 60.3886 24.6889 58.0666L21.2471 60.1048C22.6585 62.4881 24.1489 64.8596 25.7212 67.2093L29.0456 64.9849ZM20.7155 50.9288C19.4369 48.482 18.2393 46.0321 17.1199 43.5902L13.4838 45.257C14.6312 47.7601 15.8591 50.2719 17.1704 52.7814L20.7155 50.9288ZM13.8997 36.0649C12.8726 33.4854 11.9316 30.9284 11.073 28.4072L7.28653 29.6966C8.16655 32.2808 9.13097 34.9013 10.1835 37.5446L13.8997 36.0649ZM8.63365 20.5872C7.86631 17.8801 7.19686 15.2358 6.62025 12.6731L2.7178 13.5511C3.31057 16.1857 3.99807 18.9009 4.78526 21.6781L8.63365 20.5872ZM5.0714 4.68359C4.84892 3.3064 4.65617 1.96427 4.4921 0.660874L0.523418 1.16046C0.693467 2.51132 0.892886 3.89957 1.1226 5.32151L5.0714 4.68359Z" fill="#BDBDBD"/>
</svg>
