<svg width="36" height="36" viewBox="0 0 36 36" fill="none" xmlns="http://www.w3.org/2000/svg">
<path d="M28.3998 3.75537H13.8164C12.2079 3.75537 10.8998 5.0635 10.8998 6.67204V14.8183L4.03538 21.6827C3.83149 21.8866 3.69265 22.1464 3.6364 22.4293C3.58016 22.7121 3.60904 23.0053 3.71939 23.2717C3.82974 23.5382 4.01661 23.7659 4.25638 23.9262C4.49614 24.0864 4.77804 24.172 5.06642 24.172V31.4637C5.06642 31.8505 5.22007 32.2214 5.49356 32.4949C5.76705 32.7684 6.13798 32.922 6.52475 32.922H29.8581C30.2449 32.922 30.6158 32.7684 30.8893 32.4949C31.1628 32.2214 31.3164 31.8505 31.3164 31.4637V6.67204C31.3164 5.0635 30.0083 3.75537 28.3998 3.75537ZM16.7331 30.0054H7.98309V21.8591L12.3581 17.4841L16.7331 21.8591V30.0054ZM28.3998 30.0054H19.6498V24.172C19.9385 24.1727 20.2208 24.0875 20.4611 23.9274C20.7013 23.7673 20.8885 23.5394 20.999 23.2726C21.1094 23.0059 21.1382 22.7124 21.0815 22.4293C21.0249 22.1462 20.8854 21.8863 20.6808 21.6827L13.8164 14.8183V6.67204H28.3998V30.0054Z" fill="white"/>
<path d="M16.7332 9.58887H19.6499V12.5055H16.7332V9.58887ZM22.5666 9.58887H25.4832V12.5055H22.5666V9.58887ZM22.5666 15.4674H25.4832V18.3389H22.5666V15.4674ZM22.5666 21.2555H25.4832V24.1722H22.5666V21.2555ZM10.8999 22.7139H13.8166V25.6305H10.8999V22.7139Z" fill="white"/>
</svg>
