<svg width="562" height="397" viewBox="0 0 562 397" fill="none" xmlns="http://www.w3.org/2000/svg">
<g filter="url(#filter0_dd_235_230)">
<rect x="26" y="20.8306" width="443.5" height="349.111" rx="25.1275" fill="#4F4F4F"/>
</g>
<rect x="64.791" y="79.3838" width="45.2551" height="40.109" rx="3.76912" fill="#828282"/>
<rect x="119.097" y="79.3838" width="43.9621" height="40.109" rx="3.76912" fill="#828282"/>
<rect x="172.11" y="79.3838" width="45.2551" height="40.109" rx="3.76912" fill="#708FFF"/>
<rect x="64.79" y="128.406" width="45.2551" height="40.109" rx="3.76912" fill="#708FFF"/>
<rect x="64.79" y="177.428" width="45.2551" height="40.109" rx="3.76912" fill="#708FFF"/>
<rect x="64.79" y="226.45" width="45.2551" height="40.109" rx="3.76912" fill="#708FFF"/>
<rect x="64.79" y="275.472" width="45.2551" height="40.109" rx="3.76912" fill="#828282"/>
<rect x="119.097" y="128.406" width="43.9621" height="40.109" rx="3.76912" fill="#708FFF"/>
<rect x="119.097" y="177.428" width="43.9621" height="40.109" rx="3.76912" fill="#708FFF"/>
<rect x="119.097" y="226.45" width="43.9621" height="40.109" rx="3.76912" fill="#708FFF"/>
<rect x="119.097" y="275.472" width="43.9621" height="40.109" rx="3.76912" fill="#828282"/>
<rect x="172.109" y="128.406" width="45.2551" height="40.109" rx="3.76912" fill="#708FFF"/>
<rect x="172.109" y="177.428" width="45.2551" height="40.109" rx="3.76912" fill="#708FFF"/>
<rect x="172.109" y="226.45" width="45.2551" height="40.109" rx="3.76912" fill="#828282"/>
<rect x="172.109" y="275.472" width="45.2551" height="40.109" rx="3.76912" fill="#828282"/>
<rect x="226.416" y="79.3838" width="43.9621" height="40.109" rx="3.76912" fill="#708FFF"/>
<rect x="226.416" y="128.406" width="43.9621" height="40.109" rx="3.76912" fill="#708FFF"/>
<rect x="226.416" y="177.428" width="43.9621" height="40.109" rx="3.76912" fill="#708FFF"/>
<rect x="226.416" y="226.45" width="43.9621" height="40.109" rx="3.76912" fill="#828282"/>
<rect x="279.429" y="79.3838" width="45.2551" height="40.109" rx="3.76912" fill="#708FFF"/>
<rect x="279.429" y="128.406" width="45.2551" height="40.109" rx="3.76912" fill="#708FFF"/>
<rect x="279.429" y="177.428" width="45.2551" height="40.109" rx="3.76912" fill="#708FFF"/>
<rect x="279.429" y="226.45" width="45.2551" height="40.109" rx="3.76912" fill="#828282"/>
<rect x="333.735" y="79.3838" width="43.9621" height="40.109" rx="3.76912" fill="#708FFF"/>
<rect x="333.735" y="128.406" width="43.9621" height="40.109" rx="3.76912" fill="#708FFF"/>
<rect x="333.735" y="177.428" width="43.9621" height="40.109" rx="3.76912" fill="#708FFF"/>
<rect x="333.735" y="226.45" width="43.9621" height="40.109" rx="3.76912" fill="#828282"/>
<rect x="386.748" y="79.3838" width="45.2551" height="40.109" rx="3.76912" fill="#708FFF"/>
<rect x="386.748" y="128.406" width="45.2551" height="40.109" rx="3.76912" fill="#708FFF"/>
<rect x="386.748" y="177.428" width="45.2551" height="40.109" rx="3.76912" fill="#708FFF"/>
<rect x="386.748" y="226.45" width="45.2551" height="40.109" rx="3.76912" fill="#828282"/>
<circle cx="71.2551" cy="37.6394" r="9.05102" fill="#333333"/>
<circle cx="71.2551" cy="37.6394" r="8.42283" stroke="#BFBFBF" stroke-opacity="0.59" stroke-width="1.25637"/>
<circle cx="121.682" cy="37.6394" r="9.05102" fill="#333333"/>
<circle cx="121.682" cy="37.6394" r="8.42283" stroke="#BFBFBF" stroke-opacity="0.59" stroke-width="1.25637"/>
<circle cx="172.109" cy="37.6394" r="9.05102" fill="#333333"/>
<circle cx="172.109" cy="37.6394" r="8.42283" stroke="#BFBFBF" stroke-opacity="0.59" stroke-width="1.25637"/>
<circle cx="222.535" cy="37.6394" r="9.05102" fill="#333333"/>
<circle cx="222.535" cy="37.6394" r="8.42283" stroke="#BFBFBF" stroke-opacity="0.59" stroke-width="1.25637"/>
<circle cx="272.964" cy="37.6394" r="9.05102" fill="#333333"/>
<circle cx="272.964" cy="37.6394" r="8.42283" stroke="#BFBFBF" stroke-opacity="0.59" stroke-width="1.25637"/>
<circle cx="323.391" cy="37.6394" r="9.05102" fill="#333333"/>
<circle cx="323.391" cy="37.6394" r="8.42283" stroke="#BFBFBF" stroke-opacity="0.59" stroke-width="1.25637"/>
<circle cx="373.818" cy="37.6394" r="9.05102" fill="#333333"/>
<circle cx="373.818" cy="37.6394" r="8.42283" stroke="#BFBFBF" stroke-opacity="0.59" stroke-width="1.25637"/>
<circle cx="424.245" cy="37.6394" r="9.05102" fill="#333333"/>
<circle cx="424.245" cy="37.6394" r="8.42283" stroke="#BFBFBF" stroke-opacity="0.59" stroke-width="1.25637"/>
<g filter="url(#filter1_ii_235_230)">
<rect x="65.4355" y="0.143066" width="11.637" height="41.3761" rx="5.81851" fill="#535353"/>
</g>
<g filter="url(#filter2_ii_235_230)">
<rect x="116.511" y="0.142578" width="10.344" height="41.3761" rx="5.17201" fill="#535353"/>
</g>
<g filter="url(#filter3_ii_235_230)">
<rect x="166.289" y="0.142578" width="11.637" height="41.3761" rx="5.81851" fill="#535353"/>
</g>
<g filter="url(#filter4_ii_235_230)">
<rect x="216.716" y="0.142578" width="11.637" height="41.3761" rx="5.81851" fill="#535353"/>
</g>
<g filter="url(#filter5_ii_235_230)">
<rect x="267.146" y="0.142578" width="11.637" height="41.3761" rx="5.81851" fill="#535353"/>
</g>
<g filter="url(#filter6_ii_235_230)">
<rect x="317.572" y="0.142578" width="11.637" height="41.3761" rx="5.81851" fill="#535353"/>
</g>
<g filter="url(#filter7_ii_235_230)">
<rect x="368.644" y="0.142578" width="10.344" height="41.3761" rx="5.17201" fill="#535353"/>
</g>
<g filter="url(#filter8_ii_235_230)">
<rect x="418.425" y="0.142578" width="11.637" height="41.3761" rx="5.81851" fill="#535353"/>
</g>
<path d="M143.083 252.357V257.738H126.586V253.474L134.026 246.593C134.673 245.986 135.104 245.466 135.32 245.035C135.535 244.604 135.643 244.182 135.643 243.77C135.643 243.261 135.467 242.869 135.114 242.594C134.78 242.3 134.29 242.153 133.643 242.153C133.016 242.153 132.428 242.32 131.879 242.653C131.33 242.986 130.909 243.457 130.615 244.065L125.38 241.447C126.165 239.977 127.311 238.821 128.821 237.978C130.33 237.115 132.154 236.684 134.29 236.684C135.918 236.684 137.358 236.948 138.613 237.478C139.868 238.007 140.848 238.762 141.554 239.742C142.259 240.722 142.612 241.849 142.612 243.124C142.612 244.261 142.367 245.329 141.877 246.329C141.407 247.309 140.475 248.426 139.084 249.681L136.143 252.357H143.083ZM154.269 237.154V257.738H147.329V242.388H143.8V237.154H154.269Z" fill="white"/>
<circle cx="140.786" cy="246.786" r="33.2863" stroke="white" stroke-width="3" stroke-dasharray="9 9"/>
<path d="M561.161 340.714C561.365 339.911 560.879 339.095 560.076 338.891L546.991 335.57C546.188 335.366 545.372 335.852 545.168 336.655C544.964 337.458 545.45 338.274 546.253 338.478L557.884 341.43L554.932 353.061C554.728 353.864 555.214 354.68 556.017 354.884C556.82 355.088 557.636 354.602 557.84 353.799L561.161 340.714ZM158.306 274.479C159.262 276.974 160.353 279.499 161.576 282.044L164.28 280.744C163.09 278.269 162.032 275.82 161.108 273.406L158.306 274.479ZM169.68 296.306C172.554 300.696 175.788 305.106 179.369 309.495L181.693 307.599C178.175 303.286 175.003 298.96 172.19 294.663L169.68 296.306ZM190.297 321.717C193.999 325.512 197.958 329.265 202.163 332.949L204.14 330.692C199.992 327.059 196.091 323.36 192.444 319.622L190.297 321.717ZM214.867 343.28C219.12 346.494 223.57 349.629 228.21 352.664L229.852 350.154C225.269 347.155 220.874 344.059 216.676 340.887L214.867 343.28ZM242.175 361.164C246.846 363.804 251.677 366.341 256.661 368.757L257.97 366.057C253.043 363.669 248.268 361.161 243.651 358.552L242.175 361.164ZM271.547 375.414C276.51 377.454 281.605 379.373 286.824 381.157L287.795 378.319C282.633 376.554 277.595 374.656 272.687 372.639L271.547 375.414ZM302.429 385.974C307.611 387.406 312.902 388.704 318.297 389.856L318.923 386.923C313.587 385.783 308.353 384.499 303.228 383.082L302.429 385.974ZM334.367 392.8C339.683 393.615 345.089 394.287 350.581 394.807L350.864 391.82C345.429 391.306 340.081 390.641 334.821 389.835L334.367 392.8ZM366.87 395.883C372.236 396.086 377.676 396.142 383.187 396.044L383.133 393.045C377.678 393.142 372.294 393.086 366.983 392.886L366.87 395.883ZM399.49 395.309C404.845 394.922 410.261 394.388 415.735 393.7L415.361 390.723C409.939 391.405 404.576 391.933 399.274 392.316L399.49 395.309ZM431.864 391.248C437.138 390.309 442.46 389.225 447.83 387.991L447.158 385.067C441.836 386.29 436.562 387.364 431.338 388.295L431.864 391.248ZM463.612 383.964C468.764 382.518 473.957 380.933 479.187 379.204L478.245 376.355C473.058 378.07 467.91 379.642 462.801 381.075L463.612 383.964ZM494.539 373.748C499.548 371.845 504.588 369.808 509.659 367.633L508.477 364.876C503.444 367.034 498.442 369.056 493.473 370.944L494.539 373.748ZM524.544 360.89C529.375 358.585 534.232 356.154 539.113 353.593L537.719 350.937C532.871 353.48 528.049 355.894 523.253 358.183L524.544 360.89ZM553.35 345.79C555.72 344.436 558.094 343.051 560.474 341.634L558.94 339.056C556.575 340.464 554.216 341.84 551.862 343.185L553.35 345.79Z" fill="white"/>
<defs>
<filter id="filter0_dd_235_230" x="0.872522" y="0.728584" width="493.755" height="394.34" filterUnits="userSpaceOnUse" color-interpolation-filters="sRGB">
<feFlood flood-opacity="0" result="BackgroundImageFix"/>
<feColorMatrix in="SourceAlpha" type="matrix" values="0 0 0 0 0 0 0 0 0 0 0 0 0 0 0 0 0 0 127 0" result="hardAlpha"/>
<feOffset dx="-5.0255" dy="5.0255"/>
<feGaussianBlur stdDeviation="10.051"/>
<feComposite in2="hardAlpha" operator="out"/>
<feColorMatrix type="matrix" values="0 0 0 0 0 0 0 0 0 0 0 0 0 0 0 0 0 0 0.1 0"/>
<feBlend mode="normal" in2="BackgroundImageFix" result="effect1_dropShadow_235_230"/>
<feColorMatrix in="SourceAlpha" type="matrix" values="0 0 0 0 0 0 0 0 0 0 0 0 0 0 0 0 0 0 127 0" result="hardAlpha"/>
<feOffset dx="5.0255"/>
<feGaussianBlur stdDeviation="10.051"/>
<feComposite in2="hardAlpha" operator="out"/>
<feColorMatrix type="matrix" values="0 0 0 0 0 0 0 0 0 0 0 0 0 0 0 0 0 0 0.1 0"/>
<feBlend mode="normal" in2="effect1_dropShadow_235_230" result="effect2_dropShadow_235_230"/>
<feBlend mode="normal" in="SourceGraphic" in2="effect2_dropShadow_235_230" result="shape"/>
</filter>
<filter id="filter1_ii_235_230" x="65.4355" y="-1.11331" width="11.6367" height="45.1451" filterUnits="userSpaceOnUse" color-interpolation-filters="sRGB">
<feFlood flood-opacity="0" result="BackgroundImageFix"/>
<feBlend mode="normal" in="SourceGraphic" in2="BackgroundImageFix" result="shape"/>
<feColorMatrix in="SourceAlpha" type="matrix" values="0 0 0 0 0 0 0 0 0 0 0 0 0 0 0 0 0 0 127 0" result="hardAlpha"/>
<feOffset dy="-1.25637"/>
<feGaussianBlur stdDeviation="1.25637"/>
<feComposite in2="hardAlpha" operator="arithmetic" k2="-1" k3="1"/>
<feColorMatrix type="matrix" values="0 0 0 0 0 0 0 0 0 0 0 0 0 0 0 0 0 0 0.25 0"/>
<feBlend mode="normal" in2="shape" result="effect1_innerShadow_235_230"/>
<feColorMatrix in="SourceAlpha" type="matrix" values="0 0 0 0 0 0 0 0 0 0 0 0 0 0 0 0 0 0 127 0" result="hardAlpha"/>
<feOffset dy="3.76912"/>
<feGaussianBlur stdDeviation="1.25637"/>
<feComposite in2="hardAlpha" operator="arithmetic" k2="-1" k3="1"/>
<feColorMatrix type="matrix" values="0 0 0 0 1 0 0 0 0 1 0 0 0 0 1 0 0 0 0.55 0"/>
<feBlend mode="normal" in2="effect1_innerShadow_235_230" result="effect2_innerShadow_235_230"/>
</filter>
<filter id="filter2_ii_235_230" x="116.511" y="-1.1138" width="10.3438" height="45.1451" filterUnits="userSpaceOnUse" color-interpolation-filters="sRGB">
<feFlood flood-opacity="0" result="BackgroundImageFix"/>
<feBlend mode="normal" in="SourceGraphic" in2="BackgroundImageFix" result="shape"/>
<feColorMatrix in="SourceAlpha" type="matrix" values="0 0 0 0 0 0 0 0 0 0 0 0 0 0 0 0 0 0 127 0" result="hardAlpha"/>
<feOffset dy="-1.25637"/>
<feGaussianBlur stdDeviation="1.25637"/>
<feComposite in2="hardAlpha" operator="arithmetic" k2="-1" k3="1"/>
<feColorMatrix type="matrix" values="0 0 0 0 0 0 0 0 0 0 0 0 0 0 0 0 0 0 0.25 0"/>
<feBlend mode="normal" in2="shape" result="effect1_innerShadow_235_230"/>
<feColorMatrix in="SourceAlpha" type="matrix" values="0 0 0 0 0 0 0 0 0 0 0 0 0 0 0 0 0 0 127 0" result="hardAlpha"/>
<feOffset dy="3.76912"/>
<feGaussianBlur stdDeviation="1.25637"/>
<feComposite in2="hardAlpha" operator="arithmetic" k2="-1" k3="1"/>
<feColorMatrix type="matrix" values="0 0 0 0 1 0 0 0 0 1 0 0 0 0 1 0 0 0 0.55 0"/>
<feBlend mode="normal" in2="effect1_innerShadow_235_230" result="effect2_innerShadow_235_230"/>
</filter>
<filter id="filter3_ii_235_230" x="166.289" y="-1.1138" width="11.6367" height="45.1451" filterUnits="userSpaceOnUse" color-interpolation-filters="sRGB">
<feFlood flood-opacity="0" result="BackgroundImageFix"/>
<feBlend mode="normal" in="SourceGraphic" in2="BackgroundImageFix" result="shape"/>
<feColorMatrix in="SourceAlpha" type="matrix" values="0 0 0 0 0 0 0 0 0 0 0 0 0 0 0 0 0 0 127 0" result="hardAlpha"/>
<feOffset dy="-1.25637"/>
<feGaussianBlur stdDeviation="1.25637"/>
<feComposite in2="hardAlpha" operator="arithmetic" k2="-1" k3="1"/>
<feColorMatrix type="matrix" values="0 0 0 0 0 0 0 0 0 0 0 0 0 0 0 0 0 0 0.25 0"/>
<feBlend mode="normal" in2="shape" result="effect1_innerShadow_235_230"/>
<feColorMatrix in="SourceAlpha" type="matrix" values="0 0 0 0 0 0 0 0 0 0 0 0 0 0 0 0 0 0 127 0" result="hardAlpha"/>
<feOffset dy="3.76912"/>
<feGaussianBlur stdDeviation="1.25637"/>
<feComposite in2="hardAlpha" operator="arithmetic" k2="-1" k3="1"/>
<feColorMatrix type="matrix" values="0 0 0 0 1 0 0 0 0 1 0 0 0 0 1 0 0 0 0.55 0"/>
<feBlend mode="normal" in2="effect1_innerShadow_235_230" result="effect2_innerShadow_235_230"/>
</filter>
<filter id="filter4_ii_235_230" x="216.716" y="-1.1138" width="11.6367" height="45.1451" filterUnits="userSpaceOnUse" color-interpolation-filters="sRGB">
<feFlood flood-opacity="0" result="BackgroundImageFix"/>
<feBlend mode="normal" in="SourceGraphic" in2="BackgroundImageFix" result="shape"/>
<feColorMatrix in="SourceAlpha" type="matrix" values="0 0 0 0 0 0 0 0 0 0 0 0 0 0 0 0 0 0 127 0" result="hardAlpha"/>
<feOffset dy="-1.25637"/>
<feGaussianBlur stdDeviation="1.25637"/>
<feComposite in2="hardAlpha" operator="arithmetic" k2="-1" k3="1"/>
<feColorMatrix type="matrix" values="0 0 0 0 0 0 0 0 0 0 0 0 0 0 0 0 0 0 0.25 0"/>
<feBlend mode="normal" in2="shape" result="effect1_innerShadow_235_230"/>
<feColorMatrix in="SourceAlpha" type="matrix" values="0 0 0 0 0 0 0 0 0 0 0 0 0 0 0 0 0 0 127 0" result="hardAlpha"/>
<feOffset dy="3.76912"/>
<feGaussianBlur stdDeviation="1.25637"/>
<feComposite in2="hardAlpha" operator="arithmetic" k2="-1" k3="1"/>
<feColorMatrix type="matrix" values="0 0 0 0 1 0 0 0 0 1 0 0 0 0 1 0 0 0 0.55 0"/>
<feBlend mode="normal" in2="effect1_innerShadow_235_230" result="effect2_innerShadow_235_230"/>
</filter>
<filter id="filter5_ii_235_230" x="267.146" y="-1.1138" width="11.6367" height="45.1451" filterUnits="userSpaceOnUse" color-interpolation-filters="sRGB">
<feFlood flood-opacity="0" result="BackgroundImageFix"/>
<feBlend mode="normal" in="SourceGraphic" in2="BackgroundImageFix" result="shape"/>
<feColorMatrix in="SourceAlpha" type="matrix" values="0 0 0 0 0 0 0 0 0 0 0 0 0 0 0 0 0 0 127 0" result="hardAlpha"/>
<feOffset dy="-1.25637"/>
<feGaussianBlur stdDeviation="1.25637"/>
<feComposite in2="hardAlpha" operator="arithmetic" k2="-1" k3="1"/>
<feColorMatrix type="matrix" values="0 0 0 0 0 0 0 0 0 0 0 0 0 0 0 0 0 0 0.25 0"/>
<feBlend mode="normal" in2="shape" result="effect1_innerShadow_235_230"/>
<feColorMatrix in="SourceAlpha" type="matrix" values="0 0 0 0 0 0 0 0 0 0 0 0 0 0 0 0 0 0 127 0" result="hardAlpha"/>
<feOffset dy="3.76912"/>
<feGaussianBlur stdDeviation="1.25637"/>
<feComposite in2="hardAlpha" operator="arithmetic" k2="-1" k3="1"/>
<feColorMatrix type="matrix" values="0 0 0 0 1 0 0 0 0 1 0 0 0 0 1 0 0 0 0.55 0"/>
<feBlend mode="normal" in2="effect1_innerShadow_235_230" result="effect2_innerShadow_235_230"/>
</filter>
<filter id="filter6_ii_235_230" x="317.572" y="-1.1138" width="11.6372" height="45.1451" filterUnits="userSpaceOnUse" color-interpolation-filters="sRGB">
<feFlood flood-opacity="0" result="BackgroundImageFix"/>
<feBlend mode="normal" in="SourceGraphic" in2="BackgroundImageFix" result="shape"/>
<feColorMatrix in="SourceAlpha" type="matrix" values="0 0 0 0 0 0 0 0 0 0 0 0 0 0 0 0 0 0 127 0" result="hardAlpha"/>
<feOffset dy="-1.25637"/>
<feGaussianBlur stdDeviation="1.25637"/>
<feComposite in2="hardAlpha" operator="arithmetic" k2="-1" k3="1"/>
<feColorMatrix type="matrix" values="0 0 0 0 0 0 0 0 0 0 0 0 0 0 0 0 0 0 0.25 0"/>
<feBlend mode="normal" in2="shape" result="effect1_innerShadow_235_230"/>
<feColorMatrix in="SourceAlpha" type="matrix" values="0 0 0 0 0 0 0 0 0 0 0 0 0 0 0 0 0 0 127 0" result="hardAlpha"/>
<feOffset dy="3.76912"/>
<feGaussianBlur stdDeviation="1.25637"/>
<feComposite in2="hardAlpha" operator="arithmetic" k2="-1" k3="1"/>
<feColorMatrix type="matrix" values="0 0 0 0 1 0 0 0 0 1 0 0 0 0 1 0 0 0 0.55 0"/>
<feBlend mode="normal" in2="effect1_innerShadow_235_230" result="effect2_innerShadow_235_230"/>
</filter>
<filter id="filter7_ii_235_230" x="368.644" y="-1.1138" width="10.3442" height="45.1451" filterUnits="userSpaceOnUse" color-interpolation-filters="sRGB">
<feFlood flood-opacity="0" result="BackgroundImageFix"/>
<feBlend mode="normal" in="SourceGraphic" in2="BackgroundImageFix" result="shape"/>
<feColorMatrix in="SourceAlpha" type="matrix" values="0 0 0 0 0 0 0 0 0 0 0 0 0 0 0 0 0 0 127 0" result="hardAlpha"/>
<feOffset dy="-1.25637"/>
<feGaussianBlur stdDeviation="1.25637"/>
<feComposite in2="hardAlpha" operator="arithmetic" k2="-1" k3="1"/>
<feColorMatrix type="matrix" values="0 0 0 0 0 0 0 0 0 0 0 0 0 0 0 0 0 0 0.25 0"/>
<feBlend mode="normal" in2="shape" result="effect1_innerShadow_235_230"/>
<feColorMatrix in="SourceAlpha" type="matrix" values="0 0 0 0 0 0 0 0 0 0 0 0 0 0 0 0 0 0 127 0" result="hardAlpha"/>
<feOffset dy="3.76912"/>
<feGaussianBlur stdDeviation="1.25637"/>
<feComposite in2="hardAlpha" operator="arithmetic" k2="-1" k3="1"/>
<feColorMatrix type="matrix" values="0 0 0 0 1 0 0 0 0 1 0 0 0 0 1 0 0 0 0.55 0"/>
<feBlend mode="normal" in2="effect1_innerShadow_235_230" result="effect2_innerShadow_235_230"/>
</filter>
<filter id="filter8_ii_235_230" x="418.425" y="-1.1138" width="11.6372" height="45.1451" filterUnits="userSpaceOnUse" color-interpolation-filters="sRGB">
<feFlood flood-opacity="0" result="BackgroundImageFix"/>
<feBlend mode="normal" in="SourceGraphic" in2="BackgroundImageFix" result="shape"/>
<feColorMatrix in="SourceAlpha" type="matrix" values="0 0 0 0 0 0 0 0 0 0 0 0 0 0 0 0 0 0 127 0" result="hardAlpha"/>
<feOffset dy="-1.25637"/>
<feGaussianBlur stdDeviation="1.25637"/>
<feComposite in2="hardAlpha" operator="arithmetic" k2="-1" k3="1"/>
<feColorMatrix type="matrix" values="0 0 0 0 0 0 0 0 0 0 0 0 0 0 0 0 0 0 0.25 0"/>
<feBlend mode="normal" in2="shape" result="effect1_innerShadow_235_230"/>
<feColorMatrix in="SourceAlpha" type="matrix" values="0 0 0 0 0 0 0 0 0 0 0 0 0 0 0 0 0 0 127 0" result="hardAlpha"/>
<feOffset dy="3.76912"/>
<feGaussianBlur stdDeviation="1.25637"/>
<feComposite in2="hardAlpha" operator="arithmetic" k2="-1" k3="1"/>
<feColorMatrix type="matrix" values="0 0 0 0 1 0 0 0 0 1 0 0 0 0 1 0 0 0 0.55 0"/>
<feBlend mode="normal" in2="effect1_innerShadow_235_230" result="effect2_innerShadow_235_230"/>
</filter>
</defs>
</svg>
