<svg width="23" height="83" viewBox="0 0 23 83" fill="none" xmlns="http://www.w3.org/2000/svg">
<path d="M2.28168 82.5621C1.17716 82.5517 0.290194 81.6479 0.300581 80.5433L0.469871 62.5441C0.48026 61.4396 1.38407 60.5527 2.48859 60.563C3.59311 60.5734 4.48008 61.4772 4.46969 62.5818L4.31921 78.5811L20.3185 78.7315C21.423 78.7419 22.31 79.6457 22.2996 80.7503C22.2892 81.8548 21.3854 82.7417 20.2809 82.7314L2.28168 82.5621ZM0.899644 79.1347C1.93502 78.1186 2.91478 77.0988 3.84118 76.0764L6.80537 78.7622C5.82535 79.8438 4.79132 80.9199 3.70134 81.9896L0.899644 79.1347ZM9.09274 69.465C10.7531 67.0514 12.1481 64.6336 13.306 62.2248L16.9111 63.9577C15.6621 66.556 14.1631 69.152 12.3883 71.732L9.09274 69.465ZM16.2794 54.4132C17.0654 51.6521 17.5748 48.9142 17.8481 46.2187L21.8277 46.6222C21.5314 49.5445 20.9789 52.5141 20.1266 55.5084L16.2794 54.4132ZM17.9733 37.8651C17.776 35.018 17.3438 32.2437 16.729 29.5689L20.6273 28.6728C21.2856 31.5369 21.751 34.5185 21.9637 37.5886L17.9733 37.8651ZM14.2569 21.5237C13.2043 18.7939 11.9935 16.2298 10.7013 13.8704L14.2096 11.949C15.5819 14.4547 16.8689 17.1796 17.9891 20.0845L14.2569 21.5237ZM6.16296 6.77142C5.27499 5.57853 4.3927 4.49409 3.53791 3.528L6.53364 0.87741C7.46678 1.93206 8.41982 3.10437 9.37159 4.38297L6.16296 6.77142Z" fill="white"/>
</svg>
