<svg width="43" height="42" viewBox="0 0 43 42" fill="none" xmlns="http://www.w3.org/2000/svg">
<g clip-path="url(#clip0_1_694)">
<path d="M29.1243 0.294922H13.6426C6.51847 0.294922 0.741211 6.07218 0.741211 13.1963V28.678C0.741211 35.8022 6.51847 41.5795 13.6426 41.5795H29.1243C36.2485 41.5795 42.0257 35.8022 42.0257 28.678V13.1963C42.0257 6.07218 36.2485 0.294922 29.1243 0.294922ZM38.1553 28.678C38.1553 33.658 34.1043 37.709 29.1243 37.709H13.6426C8.66268 37.709 4.61164 33.658 4.61164 28.678V13.1963C4.61164 8.21639 8.66268 4.16535 13.6426 4.16535H29.1243C34.1043 4.16535 38.1553 8.21639 38.1553 13.1963V28.678Z" fill="white"/>
<path d="M21.3846 10.6152C15.6848 10.6152 11.0635 15.2365 11.0635 20.9364C11.0635 26.6362 15.6848 31.2575 21.3846 31.2575C27.0845 31.2575 31.7057 26.6362 31.7057 20.9364C31.7057 15.2365 27.0845 10.6152 21.3846 10.6152ZM21.3846 27.3871C17.829 27.3871 14.9339 24.492 14.9339 20.9364C14.9339 17.3782 17.829 14.4857 21.3846 14.4857C24.9402 14.4857 27.8353 17.3782 27.8353 20.9364C27.8353 24.492 24.9402 27.3871 21.3846 27.3871Z" fill="white"/>
<path d="M32.4778 11.2135C33.2374 11.2135 33.8531 10.5977 33.8531 9.83818C33.8531 9.07863 33.2374 8.46289 32.4778 8.46289C31.7183 8.46289 31.1025 9.07863 31.1025 9.83818C31.1025 10.5977 31.7183 11.2135 32.4778 11.2135Z" fill="white"/>
</g>
<defs>
<clipPath id="clip0_1_694">
<rect width="41.2845" height="41.2845" fill="white" transform="translate(0.741211 0.294922)"/>
</clipPath>
</defs>
</svg>
