<svg width="49" height="79" viewBox="0 0 49 79" fill="none" xmlns="http://www.w3.org/2000/svg">
<path d="M47.27 68.3564C48.2097 67.7759 48.501 66.5435 47.9205 65.6038L38.4614 50.2896C37.8809 49.3498 36.6486 49.0585 35.7088 49.639C34.7691 50.2195 34.4778 51.4518 35.0583 52.3916L43.4664 66.0042L29.8537 74.4123C28.914 74.9928 28.6227 76.2252 29.2032 77.1649C29.7836 78.1047 31.016 78.3959 31.9558 77.8155L47.27 68.3564ZM46.679 64.7084C45.2672 64.3747 43.9011 64.0091 42.5793 63.6136L41.4327 67.4458C42.831 67.8642 44.2727 68.2499 45.7589 68.6012L46.679 64.7084ZM34.6643 60.6739C31.9945 59.4678 29.5497 58.1208 27.3124 56.6587L25.1243 60.0072C27.5376 61.5842 30.1637 63.0299 33.0175 64.3191L34.6643 60.6739ZM20.7257 51.5131C18.6242 49.5572 16.7716 47.478 15.1429 45.3129L11.9463 47.7175C13.7121 50.0648 15.7216 52.32 18.0004 54.4411L20.7257 51.5131ZM10.7129 38.2295C9.40836 35.6912 8.34259 33.0936 7.48449 30.4866L3.68501 31.7372C4.60381 34.5286 5.74851 37.3208 7.15522 40.0579L10.7129 38.2295ZM5.43657 22.3232C4.92468 19.4425 4.63387 16.6219 4.51868 13.9343L0.522349 14.1056C0.644691 16.9599 0.953554 19.9576 1.49826 23.023L5.43657 22.3232ZM4.7285 5.51124C4.87103 4.03097 5.06482 2.64646 5.29632 1.37745L1.36126 0.659586C1.10854 2.04493 0.899682 3.54124 0.746912 5.12786L4.7285 5.51124Z" fill="#BDBDBD"/>
</svg>
