<svg width="49" height="28" viewBox="0 0 49 28" fill="none" xmlns="http://www.w3.org/2000/svg">
<path d="M48.9242 25.0703C48.8653 24.9439 48.8104 24.8391 48.7594 24.7551C47.9159 23.2421 46.3038 21.385 43.9242 19.1832L43.874 19.1328L43.8488 19.1081L43.8233 19.0827H43.7978C42.7178 18.0575 42.0339 17.3681 41.7475 17.0152C41.2235 16.3429 41.1061 15.6623 41.3925 14.9728C41.5949 14.4518 42.3549 13.3516 43.6709 11.6706C44.3631 10.7798 44.9114 10.0658 45.3162 9.52785C48.2361 5.66207 49.502 3.19179 49.1137 2.11603L48.9628 1.86464C48.8615 1.71329 48.5999 1.57483 48.1785 1.44856C47.7561 1.32256 47.2162 1.30172 46.5578 1.3857L39.2673 1.43585C39.1491 1.39417 38.9805 1.39806 38.7608 1.44856C38.5413 1.49907 38.4316 1.52442 38.4316 1.52442L38.3047 1.58755L38.204 1.6634C38.1195 1.71355 38.0267 1.80177 37.9254 1.92786C37.8245 2.05351 37.7402 2.20097 37.6728 2.36901C36.8791 4.40265 35.9766 6.29342 34.9638 8.04123C34.3393 9.08344 33.7658 9.98666 33.2421 10.7514C32.719 11.5159 32.2802 12.0792 31.926 12.4403C31.5714 12.8017 31.2513 13.0912 30.9638 13.3099C30.6768 13.5287 30.4577 13.6212 30.306 13.5874C30.1539 13.5535 30.0107 13.52 29.8752 13.4864C29.6391 13.3351 29.4491 13.1293 29.3059 12.8688C29.1621 12.6083 29.0653 12.2804 29.0147 11.8855C28.9643 11.4902 28.9345 11.1503 28.926 10.8645C28.9181 10.579 28.9217 10.1752 28.9388 9.65421C28.9564 9.13298 28.9643 8.78031 28.9643 8.5954C28.9643 7.95664 28.9768 7.2634 29.0019 6.51549C29.0274 5.76759 29.0481 5.17501 29.0654 4.73845C29.0826 4.30145 29.0906 3.83912 29.0906 3.3517C29.0906 2.86428 29.0608 2.48203 29.0019 2.20459C28.9437 1.9275 28.8544 1.65854 28.7368 1.39779C28.6184 1.13731 28.4452 0.935806 28.2178 0.79276C27.99 0.64989 27.7068 0.536513 27.3698 0.452274C26.4752 0.250685 25.3361 0.141634 23.9519 0.124681C20.813 0.0911268 18.7961 0.292981 17.9016 0.729978C17.5472 0.914614 17.2265 1.16689 16.9398 1.486C16.6359 1.85589 16.5935 2.05775 16.8129 2.09095C17.8257 2.24203 18.5426 2.60344 18.9646 3.17483L19.1166 3.47761C19.2349 3.69607 19.353 4.08282 19.4712 4.63735C19.5892 5.19187 19.6654 5.8053 19.6989 6.47726C19.7832 7.70437 19.7832 8.75479 19.6989 9.6286C19.6144 10.5028 19.5346 11.1833 19.4585 11.6707C19.3823 12.1581 19.2684 12.5531 19.1166 12.8555C18.9646 13.1581 18.8634 13.343 18.8127 13.4101C18.7621 13.4772 18.7199 13.5195 18.6863 13.5361C18.467 13.6198 18.2388 13.6624 18.0027 13.6624C17.7662 13.6624 17.4795 13.5446 17.142 13.3092C16.8046 13.0738 16.4545 12.7505 16.0916 12.3386C15.7287 11.9267 15.3194 11.3511 14.8635 10.6117C14.4081 9.87222 13.9355 8.99832 13.446 7.98993L13.0411 7.25863C12.7879 6.78816 12.4421 6.10313 12.0033 5.20415C11.5642 4.30481 11.1761 3.43488 10.8388 2.59452C10.7039 2.24159 10.5013 1.97289 10.2313 1.78799L10.1046 1.71214C10.0204 1.64503 9.88515 1.57377 9.69966 1.49784C9.5139 1.42199 9.32007 1.36759 9.11738 1.33413L2.18103 1.38428C1.47222 1.38428 0.991292 1.54419 0.738059 1.86358L0.636712 2.01466C0.586083 2.09881 0.560547 2.2332 0.560547 2.41819C0.560547 2.60309 0.611176 2.83002 0.712523 3.09872C1.7251 5.4687 2.82626 7.75434 4.016 9.95602C5.20573 12.1577 6.23959 13.9312 7.11696 15.275C7.9945 16.6197 8.88897 17.8888 9.80038 19.0818C10.7118 20.2751 11.3151 21.0399 11.6103 21.3759C11.9058 21.7125 12.1379 21.9641 12.3067 22.1322L12.9396 22.7371C13.3447 23.1406 13.9395 23.6237 14.7243 24.1867C15.5092 24.7499 16.3783 25.3044 17.3318 25.8511C18.2855 26.3969 19.395 26.8423 20.6609 27.1867C21.9266 27.5316 23.1585 27.6699 24.3569 27.6032H27.2682C27.8586 27.5524 28.3059 27.3675 28.61 27.0484L28.7107 26.922C28.7785 26.8217 28.8418 26.6659 28.9004 26.4561C28.9596 26.2461 28.989 26.0146 28.989 25.7629C28.9717 25.0403 29.027 24.3891 29.1532 23.8093C29.2794 23.2297 29.4232 22.7927 29.5841 22.4984C29.7448 22.2044 29.9262 21.9563 30.1281 21.7551C30.3305 21.5535 30.4747 21.4314 30.5592 21.3894C30.6433 21.3471 30.7104 21.3184 30.7611 21.3012C31.1661 21.1668 31.6428 21.2969 32.1918 21.6923C32.7404 22.0872 33.2549 22.5749 33.7362 23.1545C34.2172 23.7346 34.7951 24.3855 35.4701 25.1081C36.1455 25.8309 36.736 26.3682 37.2421 26.7217L37.7482 27.0242C38.0862 27.226 38.525 27.4109 39.0652 27.579C39.6044 27.7469 40.0768 27.7889 40.4824 27.705L46.9629 27.6043C47.6038 27.6043 48.1026 27.4986 48.4564 27.2889C48.8109 27.0788 49.0215 26.8474 49.0894 26.5957C49.1571 26.3436 49.1607 26.0577 49.1022 25.7381C49.0422 25.4192 48.9831 25.1963 48.9242 25.0703Z" fill="white"/>
</svg>
