<svg width="154" height="154" viewBox="0 0 154 154" fill="none" xmlns="http://www.w3.org/2000/svg">
<path d="M138.333 38.6667H129.064C130.189 34.939 130.729 31.0598 130.667 27.1667C130.667 12.37 118.63 0.333374 103.834 0.333374C91.3982 0.333374 83.0952 11.6954 77.7362 23.985C72.4538 12.37 63.7292 0.333374 50.1668 0.333374C35.3702 0.333374 23.3335 12.37 23.3335 27.1667C23.3335 31.736 23.9392 35.5157 24.9358 38.6667H15.6668C7.2105 38.6667 0.333496 45.5437 0.333496 54V69.3334C0.333496 77.7897 7.2105 84.6667 15.6668 84.6667V138.333C15.6668 146.79 22.5438 153.667 31.0002 153.667H123C131.456 153.667 138.333 146.79 138.333 138.333V84.6667C146.79 84.6667 153.667 77.7897 153.667 69.3334V54C153.667 45.5437 146.79 38.6667 138.333 38.6667ZM103.834 15.6667C110.174 15.6667 115.334 20.8264 115.334 27.1667C115.334 38.6667 110.534 38.6667 107.667 38.6667H88.6688C92.5865 26.584 98.2752 15.6667 103.834 15.6667ZM38.6668 27.1667C38.6668 20.8264 43.8265 15.6667 50.1668 15.6667C56.9748 15.6667 63.3075 27.3584 67.0182 38.6667H46.3335C43.4662 38.6667 38.6668 38.6667 38.6668 27.1667ZM15.6668 54H69.3335V69.3334H15.6668V54ZM31.0002 138.333V84.6667H69.3335V138.333H31.0002ZM123 138.333H84.6668V84.6667H123V138.333ZM84.6668 69.3334V54.6517L84.7972 54H138.333L138.341 69.3334H84.6668Z" fill="url(#paint0_linear_1_981)"/>
<defs>
<linearGradient id="paint0_linear_1_981" x1="77.0002" y1="0.333374" x2="77.0002" y2="164.954" gradientUnits="userSpaceOnUse">
<stop stop-color="#BABABA"/>
<stop offset="1" stop-color="#737373" stop-opacity="0"/>
</linearGradient>
</defs>
</svg>
