<svg width="49" height="79" viewBox="0 0 49 79" fill="none" xmlns="http://www.w3.org/2000/svg">
<path d="M1.92926 68.6901C0.989497 68.1096 0.698228 66.8773 1.27869 65.9375L10.7378 50.6233C11.3183 49.6835 12.5506 49.3923 13.4904 49.9727C14.4302 50.5532 14.7214 51.7856 14.141 52.7253L5.73286 66.338L19.3455 74.7461C20.2852 75.3265 20.5765 76.5589 19.9961 77.4987C19.4156 78.4384 18.1832 78.7297 17.2435 78.1492L1.92926 68.6901ZM2.52025 65.0421C3.93202 64.7085 5.29811 64.3429 6.61991 63.9474L7.7665 67.7795C6.36819 68.1979 4.9265 68.5836 3.44029 68.9349L2.52025 65.0421ZM14.5349 61.0076C17.2047 59.8015 19.6495 58.4545 21.8869 56.9925L24.075 60.3409C21.6616 61.918 19.0355 63.3636 16.1818 64.6529L14.5349 61.0076ZM28.4736 51.8469C30.575 49.8909 32.4276 47.8118 34.0564 45.6467L37.2529 48.0513C35.4871 50.3985 33.4777 52.6537 31.1988 54.7748L28.4736 51.8469ZM38.4863 38.5633C39.7909 36.025 40.8566 33.4274 41.7147 30.8203L45.5142 32.0709C44.5954 34.8624 43.4507 37.6545 42.044 40.3917L38.4863 38.5633ZM43.7627 22.6569C44.2745 19.7762 44.5653 16.9556 44.6805 14.2681L48.6769 14.4394C48.5545 17.2937 48.2457 20.2913 47.701 23.3567L43.7627 22.6569ZM44.4707 5.84498C44.3282 4.36471 44.1344 2.9802 43.9029 1.71119L47.838 0.993326C48.0907 2.37867 48.2995 3.87498 48.4523 5.4616L44.4707 5.84498Z" fill="#BDBDBD"/>
</svg>
