<svg width="136" height="42" viewBox="0 0 136 42" fill="none" xmlns="http://www.w3.org/2000/svg">
<g clip-path="url(#clip0_1_671)">
<path fill-rule="evenodd" clip-rule="evenodd" d="M29.1129 24.731L30.3118 25.2832C30.5298 25.3935 30.6388 25.504 30.6388 25.504V26.277L30.6384 26.2793C30.5295 26.8305 30.4205 27.3818 30.2029 27.8228C30.0938 28.0438 29.8759 28.2646 29.6579 28.4855C29.5489 28.5959 29.4399 28.6787 29.3309 28.7615C29.2219 28.8442 29.113 28.927 29.004 29.0375L28.7859 29.2584C28.6635 29.3824 28.5411 29.4368 28.3994 29.4997C28.2888 29.5489 28.1664 29.6033 28.023 29.7001C27.5869 29.9209 26.933 30.1418 26.388 30.1418H25.2982C25.1346 30.0865 24.9437 30.0589 24.7528 30.0312C24.5622 30.0037 24.3716 29.9761 24.2082 29.9209C21.2654 29.1479 18.6496 27.7125 16.3607 25.7247C16.2184 25.5085 16.0296 25.3393 15.8247 25.1557C15.7158 25.0581 15.6023 24.9564 15.4888 24.8414L15.0529 24.3997C13.3088 22.7434 12.001 20.8661 11.0201 18.7681L10.911 18.4368C10.584 17.6638 10.366 16.7804 10.366 15.897C10.366 14.6824 10.802 13.4677 11.5649 12.4739C11.6739 12.3634 11.7557 12.253 11.8374 12.1426C11.9192 12.0322 12.0009 11.9218 12.1099 11.8113C12.219 11.7561 12.328 11.6732 12.4371 11.5903C12.546 11.5076 12.6549 11.4248 12.7638 11.3696L12.8729 11.2593C12.9819 11.2593 13.0909 11.2317 13.1999 11.204C13.3089 11.1764 13.4179 11.1488 13.527 11.1488H14.7259C15.0529 11.2593 15.2707 11.3696 15.4888 11.7009C15.8157 12.3634 17.1237 15.3449 17.2326 15.897C17.3416 16.2284 17.2326 16.67 17.0146 17.0013C16.9056 17.1117 16.8239 17.2497 16.7422 17.3877C16.6605 17.5257 16.5787 17.6638 16.4696 17.7743C16.1427 18.1055 15.7068 18.6576 15.7068 18.6576C15.5977 18.7681 15.5977 18.989 15.5977 19.2098C15.6394 19.2942 15.6652 19.3625 15.6872 19.4208C15.7227 19.515 15.7484 19.5832 15.8157 19.6515L15.9248 19.8723C16.4696 20.8661 17.2326 21.7496 17.9955 22.5226C18.1045 22.633 18.2408 22.7434 18.377 22.8538C18.5133 22.9642 18.6495 23.0746 18.7585 23.1851C19.6305 24.0684 20.7204 24.731 21.9193 25.2832L22.4643 25.504C22.5734 25.6143 22.7913 25.7248 22.9002 25.7248H23.0093C23.2273 25.7248 23.4452 25.6144 23.5543 25.3935C25.0802 23.6267 25.1891 23.5164 25.1891 23.5164C25.4071 23.4059 25.6251 23.2954 25.9521 23.2954C26.0066 23.2954 26.0611 23.323 26.1156 23.3506C26.1701 23.3783 26.2246 23.4059 26.2791 23.4059C27.3691 23.958 29.1129 24.731 29.1129 24.731Z" fill="#838383"/>
<path fill-rule="evenodd" clip-rule="evenodd" d="M34.7805 6.40039C31.0748 2.53562 25.9521 0.4375 20.7204 0.4375C9.6032 0.4375 0.665703 9.60266 0.774609 20.7555C0.774609 24.2891 1.75555 27.7123 3.39055 30.8041L0.556641 41.2944L11.129 38.5338C14.0718 40.1902 17.3415 40.9632 20.6115 40.9632C31.6198 40.9632 40.5573 31.7979 40.5573 20.6453C40.5573 15.2344 38.4862 10.1548 34.7805 6.40039ZM12.3279 35.2213C14.8348 36.7673 17.7776 37.5401 20.7204 37.5401C23.7723 37.5401 26.824 36.6566 29.331 35.0003C37.1784 30.1416 39.4673 19.8721 34.6716 11.9216C29.8759 3.9711 19.7394 1.65215 11.892 6.51072C4.04445 11.3695 1.75555 21.7496 6.55133 29.5896L6.98726 30.2523L5.35242 36.5463L11.674 34.89L12.3279 35.2213Z" fill="#838383"/>
</g>
<path d="M71.2914 15.9352L67.7215 26.6143H66.1197L63.2058 18.0863L60.292 26.6143H58.6596L55.0897 15.9352H56.6611L59.5444 24.6158L62.5498 15.9352H63.9533L66.8977 24.6615L69.8421 15.9352H71.2914ZM77.4848 18.4524C78.512 18.4524 79.3257 18.7525 79.9257 19.3525C80.536 19.9424 80.8411 20.812 80.8411 21.9613V26.6143H79.3765V22.1291C79.3765 21.3459 79.1884 20.756 78.8121 20.3594C78.4358 19.9628 77.8967 19.7644 77.195 19.7644C76.4017 19.7644 75.7762 19.9983 75.3185 20.4662C74.8608 20.9239 74.632 21.5849 74.632 22.4494V26.6143H73.1675V15.2945H74.632V19.6729C74.9371 19.2864 75.3338 18.9864 75.822 18.7728C76.3203 18.5592 76.8746 18.4524 77.4848 18.4524ZM86.4959 18.4524C87.6146 18.4524 88.4689 18.727 89.0588 19.2762C89.6589 19.8254 89.9589 20.6442 89.9589 21.7324V26.6143H88.5706V25.5464C88.3265 25.9227 87.9757 26.2125 87.518 26.4159C87.0705 26.6092 86.5365 26.7058 85.9161 26.7058C85.011 26.7058 84.2838 26.4871 83.7346 26.0498C83.1955 25.6125 82.926 25.0378 82.926 24.3259C82.926 23.614 83.1854 23.0444 83.7041 22.6173C84.2227 22.1799 85.0466 21.9613 86.1755 21.9613H88.4944V21.6714C88.4944 21.0408 88.3113 20.5577 87.9451 20.2221C87.579 19.8865 87.04 19.7187 86.328 19.7187C85.85 19.7187 85.3822 19.8 84.9245 19.9628C84.4668 20.1153 84.0804 20.3238 83.7651 20.5882L83.1548 19.4898C83.5718 19.1542 84.0702 18.8999 84.6499 18.727C85.2296 18.544 85.8449 18.4524 86.4959 18.4524ZM86.1602 25.5769C86.7196 25.5769 87.2027 25.4548 87.6095 25.2107C88.0163 24.9565 88.3113 24.6005 88.4944 24.1428V23.0139H86.2365C84.9957 23.0139 84.3753 23.4309 84.3753 24.2649C84.3753 24.6717 84.5329 24.9921 84.8482 25.226C85.1635 25.4599 85.6008 25.5769 86.1602 25.5769ZM97.2154 26.1413C97.0018 26.3244 96.7374 26.4668 96.4221 26.5685C96.1068 26.66 95.7814 26.7058 95.4457 26.7058C94.6321 26.7058 94.0015 26.4871 93.554 26.0498C93.1065 25.6125 92.8828 24.987 92.8828 24.1733V19.7339H91.5098V18.5287H92.8828V16.759H94.3473V18.5287H96.6662V19.7339H94.3473V24.1123C94.3473 24.5496 94.4541 24.8853 94.6677 25.1192C94.8914 25.3531 95.2067 25.4701 95.6135 25.4701C96.061 25.4701 96.4424 25.3429 96.7577 25.0887L97.2154 26.1413ZM101.305 26.7058C100.644 26.7058 100.008 26.6193 99.3979 26.4464C98.7877 26.2634 98.3097 26.0345 97.9639 25.7599L98.5741 24.6005C98.9301 24.8548 99.3623 25.0582 99.8709 25.2107C100.379 25.3633 100.893 25.4396 101.412 25.4396C102.693 25.4396 103.334 25.0734 103.334 24.3412C103.334 24.0971 103.247 23.9038 103.075 23.7614C102.902 23.619 102.683 23.5173 102.419 23.4563C102.164 23.3851 101.798 23.3088 101.32 23.2275C100.669 23.1258 100.135 23.0088 99.7183 22.8766C99.3115 22.7444 98.9606 22.5206 98.6657 22.2053C98.3707 21.8901 98.2232 21.4476 98.2232 20.8781C98.2232 20.1458 98.5283 19.561 99.1386 19.1237C99.7488 18.6762 100.568 18.4524 101.595 18.4524C102.134 18.4524 102.673 18.5185 103.212 18.6508C103.751 18.783 104.193 18.961 104.539 19.1847L103.914 20.3441C103.253 19.917 102.475 19.7034 101.579 19.7034C100.959 19.7034 100.486 19.8051 100.161 20.0085C99.8353 20.2119 99.6725 20.4814 99.6725 20.8171C99.6725 21.0815 99.7641 21.29 99.9471 21.4426C100.13 21.5951 100.354 21.707 100.618 21.7782C100.893 21.8494 101.274 21.9307 101.763 22.0223C102.413 22.1342 102.937 22.2562 103.334 22.3884C103.741 22.5105 104.087 22.724 104.371 23.0292C104.656 23.3343 104.798 23.7614 104.798 24.3106C104.798 25.0429 104.483 25.6277 103.853 26.0651C103.232 26.4922 102.383 26.7058 101.305 26.7058ZM109.573 18.4524C110.692 18.4524 111.546 18.727 112.136 19.2762C112.736 19.8254 113.036 20.6442 113.036 21.7324V26.6143H111.648V25.5464C111.404 25.9227 111.053 26.2125 110.595 26.4159C110.148 26.6092 109.614 26.7058 108.993 26.7058C108.088 26.7058 107.361 26.4871 106.812 26.0498C106.273 25.6125 106.003 25.0378 106.003 24.3259C106.003 23.614 106.263 23.0444 106.781 22.6173C107.3 22.1799 108.124 21.9613 109.253 21.9613H111.572V21.6714C111.572 21.0408 111.389 20.5577 111.022 20.2221C110.656 19.8865 110.117 19.7187 109.405 19.7187C108.927 19.7187 108.459 19.8 108.002 19.9628C107.544 20.1153 107.158 20.3238 106.842 20.5882L106.232 19.4898C106.649 19.1542 107.147 18.8999 107.727 18.727C108.307 18.544 108.922 18.4524 109.573 18.4524ZM109.238 25.5769C109.797 25.5769 110.28 25.4548 110.687 25.2107C111.094 24.9565 111.389 24.6005 111.572 24.1428V23.0139H109.314C108.073 23.0139 107.453 23.4309 107.453 24.2649C107.453 24.6717 107.61 24.9921 107.926 25.226C108.241 25.4599 108.678 25.5769 109.238 25.5769ZM120.033 18.4524C120.816 18.4524 121.518 18.6253 122.139 18.9711C122.759 19.3169 123.242 19.8 123.588 20.4204C123.944 21.0408 124.122 21.7578 124.122 22.5715C124.122 23.3851 123.944 24.1072 123.588 24.7378C123.242 25.3582 122.759 25.8413 122.139 26.1871C121.518 26.5329 120.816 26.7058 120.033 26.7058C119.454 26.7058 118.92 26.5939 118.431 26.3702C117.953 26.1464 117.547 25.821 117.211 25.3938V29.5739H115.746V18.5287H117.15V19.8102C117.475 19.3627 117.887 19.0271 118.386 18.8033C118.884 18.5694 119.433 18.4524 120.033 18.4524ZM119.911 25.4243C120.43 25.4243 120.893 25.3073 121.3 25.0734C121.717 24.8293 122.042 24.4937 122.276 24.0665C122.52 23.6292 122.642 23.1309 122.642 22.5715C122.642 22.0121 122.52 21.5188 122.276 21.0917C122.042 20.6543 121.717 20.3187 121.3 20.0848C120.893 19.8509 120.43 19.7339 119.911 19.7339C119.403 19.7339 118.94 19.856 118.523 20.1001C118.116 20.334 117.791 20.6645 117.547 21.0917C117.313 21.5188 117.196 22.0121 117.196 22.5715C117.196 23.1309 117.313 23.6292 117.547 24.0665C117.781 24.4937 118.106 24.8293 118.523 25.0734C118.94 25.3073 119.403 25.4243 119.911 25.4243ZM130.432 18.4524C131.215 18.4524 131.917 18.6253 132.538 18.9711C133.158 19.3169 133.641 19.8 133.987 20.4204C134.343 21.0408 134.521 21.7578 134.521 22.5715C134.521 23.3851 134.343 24.1072 133.987 24.7378C133.641 25.3582 133.158 25.8413 132.538 26.1871C131.917 26.5329 131.215 26.7058 130.432 26.7058C129.853 26.7058 129.319 26.5939 128.83 26.3702C128.352 26.1464 127.946 25.821 127.61 25.3938V29.5739H126.145V18.5287H127.549V19.8102C127.874 19.3627 128.286 19.0271 128.785 18.8033C129.283 18.5694 129.832 18.4524 130.432 18.4524ZM130.31 25.4243C130.829 25.4243 131.292 25.3073 131.699 25.0734C132.116 24.8293 132.441 24.4937 132.675 24.0665C132.919 23.6292 133.041 23.1309 133.041 22.5715C133.041 22.0121 132.919 21.5188 132.675 21.0917C132.441 20.6543 132.116 20.3187 131.699 20.0848C131.292 19.8509 130.829 19.7339 130.31 19.7339C129.802 19.7339 129.339 19.856 128.922 20.1001C128.515 20.334 128.19 20.6645 127.946 21.0917C127.712 21.5188 127.595 22.0121 127.595 22.5715C127.595 23.1309 127.712 23.6292 127.946 24.0665C128.18 24.4937 128.505 24.8293 128.922 25.0734C129.339 25.3073 129.802 25.4243 130.31 25.4243Z" fill="#828282"/>
<defs>
<clipPath id="clip0_1_671">
<rect width="40" height="41" fill="white" transform="translate(0.556641 0.4375)"/>
</clipPath>
</defs>
</svg>
