<svg width="95" height="42" viewBox="0 0 95 42" fill="none" xmlns="http://www.w3.org/2000/svg">
<path fill-rule="evenodd" clip-rule="evenodd" d="M19.4668 0.4375C33.6976 0.4375 37.9668 6.18706 37.9668 18.7214C37.9668 31.2557 33.6976 37.0053 19.4668 37.0053C18.1074 37.0053 16.8389 36.9528 15.6563 36.847L12.366 40.8438C11.3898 42.0296 9.50526 41.3201 9.50526 39.7667V35.5465C3.12904 33.1257 0.966797 27.6417 0.966797 18.7214C0.966797 6.18706 5.23603 0.4375 19.4668 0.4375ZM16.4032 34.2881C17.3589 34.3668 18.3789 34.4059 19.4669 34.4059C31.6647 34.4059 35.3241 29.4949 35.3241 18.7885C35.3241 8.08211 31.6647 3.17105 19.4669 3.17105C7.26914 3.17105 3.6098 8.08211 3.6098 18.7885C3.6098 26.3561 5.43805 31.0283 10.8176 33.1174V39.4749C10.8176 40.0292 11.4874 40.2823 11.8344 39.8592L16.4032 34.2881Z" fill="#838383"/>
<path d="M13.482 15.5252L13.4136 15.5643L13.3538 15.6156C12.9475 15.9631 12.3683 16.8843 12.879 18.0131C13.2802 18.9 14.1823 20.7314 15.7759 22.1159C17.3276 23.464 18.9903 24.1949 20.0983 24.4366L20.1865 24.4558H20.2574C20.2584 24.456 20.2596 24.4562 20.2608 24.4563C20.2642 24.4568 20.268 24.4574 20.2723 24.4581C20.2797 24.4593 20.2886 24.4607 20.2994 24.4626L20.3588 24.4732C20.3676 24.4748 20.3769 24.4765 20.3866 24.4783C20.723 24.54 21.6086 24.7024 22.3415 23.9471C22.7641 23.5116 23.15 23.0585 23.3245 22.8445C23.3273 22.8421 23.3305 22.8394 23.3343 22.8363C23.3493 22.8242 23.3696 22.8093 23.3948 22.7933C23.4458 22.7611 23.51 22.729 23.5835 22.7052C23.724 22.6597 23.8997 22.643 24.1104 22.7167C25.0014 23.0282 26.0744 23.7383 26.6036 24.1066C27.0094 24.3891 27.9318 25.0725 28.3493 25.3843L28.3497 25.3846C28.3494 25.3844 28.3495 25.3844 28.3499 25.3848C28.3527 25.3872 28.3708 25.4028 28.3937 25.4325C28.4186 25.4647 28.4406 25.5025 28.4555 25.5424C28.4698 25.5806 28.4775 25.6202 28.4766 25.6632C28.4757 25.7048 28.4666 25.7663 28.4286 25.8503C28.2826 26.1735 27.821 26.8186 27.1875 27.3868C26.536 27.9711 25.8964 28.2995 25.4235 28.2995C25.4369 28.2995 25.436 28.2993 25.4173 28.2963C25.3866 28.2912 25.3081 28.2784 25.167 28.2456C24.9704 28.1999 24.7019 28.1276 24.3716 28.0248C23.7119 27.8196 22.824 27.4986 21.7973 27.0418C19.7418 26.1273 17.1542 24.679 14.7324 22.547C13.2147 21.211 11.7771 19.3577 10.6544 17.6166C9.52078 15.8584 8.77008 14.3111 8.56901 13.61L8.55166 13.5496L8.52547 13.4923C8.48178 13.3969 8.41377 13.1753 8.41242 12.9224C8.41112 12.679 8.47034 12.4618 8.61086 12.2877C9.15948 11.6077 9.72892 10.9531 10.9925 10.3209C11.0889 10.2727 11.2494 10.227 11.4045 10.2244C11.5555 10.2219 11.604 10.2592 11.6042 10.259C11.6042 10.259 11.6041 10.2589 11.6038 10.2587C12.0941 10.7033 12.8558 11.4902 13.3666 12.1594C13.6327 12.5079 13.9548 12.9514 14.2232 13.3367C14.3574 13.5295 14.4752 13.7034 14.5645 13.8411C14.6411 13.9592 14.6785 14.0231 14.691 14.0447C14.6939 14.0559 14.6994 14.079 14.7047 14.1149C14.7147 14.1818 14.7195 14.2652 14.7127 14.352C14.6985 14.5333 14.6422 14.654 14.5663 14.7259C14.1924 15.08 13.6804 15.4116 13.482 15.5252Z" fill="#838383" stroke="#838383" stroke-width="1.67539" stroke-linecap="round"/>
<path d="M63.8148 14.9606L59.1313 25.6396H57.621L52.9222 14.9606H54.5699L58.4143 23.7327L62.2893 14.9606H63.8148ZM64.978 17.5541H66.4425V25.6396H64.978V17.5541ZM65.7103 15.998C65.4255 15.998 65.1865 15.9065 64.9932 15.7234C64.8102 15.5403 64.7186 15.3166 64.7186 15.0522C64.7186 14.7877 64.8102 14.564 64.9932 14.3809C65.1865 14.1877 65.4255 14.091 65.7103 14.091C65.995 14.091 66.229 14.1826 66.412 14.3656C66.6053 14.5385 66.7019 14.7572 66.7019 15.0216C66.7019 15.2963 66.6053 15.5302 66.412 15.7234C66.229 15.9065 65.995 15.998 65.7103 15.998ZM73.5257 17.4778C74.3089 17.4778 75.0106 17.6507 75.631 17.9965C76.2514 18.3423 76.7345 18.8254 77.0803 19.4458C77.4363 20.0662 77.6143 20.7832 77.6143 21.5969C77.6143 22.4105 77.4363 23.1326 77.0803 23.7632C76.7345 24.3836 76.2514 24.8667 75.631 25.2125C75.0106 25.5583 74.3089 25.7312 73.5257 25.7312C72.9257 25.7312 72.3765 25.6142 71.8781 25.3803C71.3798 25.1464 70.9678 24.8057 70.6424 24.3582V25.6396H69.2389V14.3199H70.7034V18.7746C71.0289 18.3474 71.4357 18.027 71.9239 17.8134C72.4121 17.5897 72.946 17.4778 73.5257 17.4778ZM73.4037 24.4497C73.9224 24.4497 74.3851 24.3327 74.792 24.0988C75.2089 23.8547 75.5344 23.5191 75.7683 23.0919C76.0124 22.6546 76.1345 22.1563 76.1345 21.5969C76.1345 21.0375 76.0124 20.5442 75.7683 20.1171C75.5344 19.6797 75.2089 19.3441 74.792 19.1102C74.3851 18.8763 73.9224 18.7593 73.4037 18.7593C72.8952 18.7593 72.4324 18.8763 72.0154 19.1102C71.5984 19.3441 71.273 19.6797 71.039 20.1171C70.8051 20.5442 70.6882 21.0375 70.6882 21.5969C70.6882 22.1563 70.8051 22.6546 71.039 23.0919C71.273 23.5191 71.5984 23.8547 72.0154 24.0988C72.4324 24.3327 72.8952 24.4497 73.4037 24.4497ZM86.9453 21.6426C86.9453 21.7545 86.9351 21.902 86.9148 22.0851H80.3548C80.4464 22.797 80.7566 23.3716 81.2854 23.809C81.8245 24.2361 82.4906 24.4497 83.2839 24.4497C84.2501 24.4497 85.0282 24.1242 85.6181 23.4733L86.4266 24.4192C86.0605 24.8463 85.6028 25.1718 85.0536 25.3956C84.5146 25.6193 83.9094 25.7312 83.2382 25.7312C82.3838 25.7312 81.6261 25.5583 80.9651 25.2125C80.304 24.8565 79.7904 24.3633 79.4242 23.7327C79.0683 23.1021 78.8903 22.3902 78.8903 21.5969C78.8903 20.8137 79.0632 20.1069 79.409 19.4763C79.7649 18.8458 80.248 18.3576 80.8583 18.0118C81.4787 17.6558 82.1753 17.4778 82.9483 17.4778C83.7213 17.4778 84.4078 17.6558 85.0078 18.0118C85.6181 18.3576 86.091 18.8458 86.4266 19.4763C86.7724 20.1069 86.9453 20.829 86.9453 21.6426ZM82.9483 18.7135C82.2465 18.7135 81.6566 18.9271 81.1786 19.3543C80.7108 19.7814 80.4362 20.3408 80.3548 21.0324H85.5418C85.4604 20.351 85.1807 19.7967 84.7027 19.3695C84.2349 18.9322 83.6501 18.7135 82.9483 18.7135ZM90.3825 18.9119C90.6368 18.444 91.0131 18.0881 91.5114 17.844C92.0098 17.5999 92.6149 17.4778 93.3269 17.4778V18.8966C93.2455 18.8864 93.1336 18.8814 92.9912 18.8814C92.1979 18.8814 91.5724 19.1204 91.1148 19.5984C90.6673 20.0662 90.4435 20.7375 90.4435 21.6121V25.6396H88.979V17.5541H90.3825V18.9119Z" fill="#828282"/>
</svg>
