<svg width="139" height="36" viewBox="0 0 139 36" fill="none" xmlns="http://www.w3.org/2000/svg">
<path d="M68.5427 14.993H64.8813V13.6657H73.7144V14.993H70.053V24.3447H68.5427V14.993ZM81.6356 20.3477C81.6356 20.4596 81.6254 20.6071 81.6051 20.7901H75.0451C75.1367 21.5021 75.4469 22.0767 75.9757 22.514C76.5148 22.9412 77.1809 23.1548 77.9742 23.1548C78.9404 23.1548 79.7185 22.8293 80.3084 22.1784L81.1169 23.1243C80.7508 23.5514 80.2931 23.8769 79.7439 24.1006C79.2049 24.3244 78.5997 24.4363 77.9285 24.4363C77.0741 24.4363 76.3164 24.2634 75.6554 23.9176C74.9943 23.5616 74.4807 23.0683 74.1145 22.4378C73.7586 21.8072 73.5806 21.0953 73.5806 20.302C73.5806 19.5188 73.7535 18.812 74.0993 18.1814C74.4552 17.5508 74.9383 17.0626 75.5486 16.7169C76.169 16.3609 76.8656 16.1829 77.6386 16.1829C78.4116 16.1829 79.0981 16.3609 79.6981 16.7169C80.3084 17.0626 80.7813 17.5508 81.1169 18.1814C81.4627 18.812 81.6356 19.5341 81.6356 20.3477ZM77.6386 17.4186C76.9368 17.4186 76.3469 17.6322 75.8689 18.0594C75.4011 18.4865 75.1265 19.0459 75.0451 19.7375H80.2321C80.1507 19.0561 79.871 18.5018 79.393 18.0746C78.9252 17.6373 78.3404 17.4186 77.6386 17.4186ZM83.6693 13.025H85.1338V24.3447H83.6693V13.025ZM95.2377 20.3477C95.2377 20.4596 95.2275 20.6071 95.2071 20.7901H88.6472C88.7387 21.5021 89.0489 22.0767 89.5778 22.514C90.1168 22.9412 90.783 23.1548 91.5763 23.1548C92.5425 23.1548 93.3205 22.8293 93.9104 22.1784L94.719 23.1243C94.3528 23.5514 93.8951 23.8769 93.3459 24.1006C92.8069 24.3244 92.2018 24.4363 91.5305 24.4363C90.6762 24.4363 89.9185 24.2634 89.2574 23.9176C88.5963 23.5616 88.0827 23.0683 87.7166 22.4378C87.3606 21.8072 87.1826 21.0953 87.1826 20.302C87.1826 19.5188 87.3555 18.812 87.7013 18.1814C88.0573 17.5508 88.5404 17.0626 89.1506 16.7169C89.771 16.3609 90.4677 16.1829 91.2406 16.1829C92.0136 16.1829 92.7001 16.3609 93.3002 16.7169C93.9104 17.0626 94.3833 17.5508 94.719 18.1814C95.0648 18.812 95.2377 19.5341 95.2377 20.3477ZM91.2406 17.4186C90.5389 17.4186 89.949 17.6322 89.471 18.0594C89.0031 18.4865 88.7285 19.0459 88.6472 19.7375H93.8341C93.7528 19.0561 93.4731 18.5018 92.9951 18.0746C92.5272 17.6373 91.9424 17.4186 91.2406 17.4186ZM105.006 16.2592V23.2463C105.006 24.66 104.655 25.7025 103.953 26.3737C103.252 27.0552 102.204 27.3959 100.811 27.3959C100.048 27.3959 99.3207 27.2891 98.6291 27.0755C97.9375 26.8721 97.3781 26.5772 96.9509 26.1907L97.6527 25.0617C98.029 25.3872 98.4918 25.6415 99.041 25.8245C99.6004 26.0178 100.175 26.1144 100.765 26.1144C101.711 26.1144 102.407 25.8906 102.855 25.4431C103.313 24.9956 103.541 24.3142 103.541 23.3989V22.7581C103.196 23.1751 102.768 23.4904 102.26 23.704C101.762 23.9074 101.217 24.0091 100.628 24.0091C99.8546 24.0091 99.1529 23.8464 98.5223 23.5209C97.9019 23.1853 97.4137 22.7225 97.0577 22.1326C96.7018 21.5326 96.5238 20.8512 96.5238 20.0884C96.5238 19.3256 96.7018 18.6492 97.0577 18.0594C97.4137 17.4593 97.9019 16.9965 98.5223 16.6711C99.1529 16.3456 99.8546 16.1829 100.628 16.1829C101.238 16.1829 101.802 16.2948 102.321 16.5185C102.85 16.7423 103.282 17.0728 103.618 17.5102V16.2592H105.006ZM100.795 22.7276C101.324 22.7276 101.797 22.6157 102.214 22.392C102.641 22.1682 102.972 21.858 103.206 21.4614C103.45 21.0546 103.572 20.5969 103.572 20.0884C103.572 19.3052 103.313 18.6747 102.794 18.1967C102.275 17.7085 101.609 17.4644 100.795 17.4644C99.9716 17.4644 99.3003 17.7085 98.7816 18.1967C98.2629 18.6747 98.0036 19.3052 98.0036 20.0884C98.0036 20.5969 98.1206 21.0546 98.3545 21.4614C98.5986 21.858 98.9291 22.1682 99.3461 22.392C99.7733 22.6157 100.256 22.7276 100.795 22.7276ZM109.208 17.6169C109.462 17.1491 109.838 16.7931 110.337 16.549C110.835 16.3049 111.44 16.1829 112.152 16.1829V17.6017C112.071 17.5915 111.959 17.5864 111.817 17.5864C111.023 17.5864 110.398 17.8254 109.94 18.3034C109.493 18.7713 109.269 19.4425 109.269 20.3172V24.3447H107.804V16.2592H109.208V17.6169ZM116.887 16.1829C118.006 16.1829 118.86 16.4575 119.45 17.0067C120.05 17.5559 120.35 18.3746 120.35 19.4629V24.3447H118.962V23.2768C118.717 23.6531 118.367 23.943 117.909 24.1464C117.461 24.3396 116.927 24.4363 116.307 24.4363C115.402 24.4363 114.675 24.2176 114.125 23.7803C113.586 23.3429 113.317 22.7683 113.317 22.0564C113.317 21.3444 113.576 20.7749 114.095 20.3477C114.614 19.9104 115.437 19.6917 116.566 19.6917H118.885V19.4019C118.885 18.7713 118.702 18.2882 118.336 17.9526C117.97 17.6169 117.431 17.4491 116.719 17.4491C116.241 17.4491 115.773 17.5305 115.315 17.6932C114.858 17.8458 114.471 18.0543 114.156 18.3187L113.546 17.2203C113.963 16.8847 114.461 16.6304 115.041 16.4575C115.621 16.2744 116.236 16.1829 116.887 16.1829ZM116.551 23.3073C117.111 23.3073 117.594 23.1853 118 22.9412C118.407 22.6869 118.702 22.331 118.885 21.8733V20.7444H116.627C115.387 20.7444 114.766 21.1614 114.766 21.9953C114.766 22.4022 114.924 22.7225 115.239 22.9565C115.554 23.1904 115.992 23.3073 116.551 23.3073ZM133.175 16.1829C134.192 16.1829 134.995 16.4778 135.585 17.0677C136.185 17.6576 136.485 18.5323 136.485 19.6917V24.3447H135.021V19.8595C135.021 19.0764 134.838 18.4865 134.471 18.0899C134.115 17.6932 133.602 17.4949 132.931 17.4949C132.188 17.4949 131.598 17.7288 131.161 18.1967C130.724 18.6543 130.505 19.3154 130.505 20.1799V24.3447H129.04V19.8595C129.04 19.0764 128.857 18.4865 128.491 18.0899C128.135 17.6932 127.622 17.4949 126.95 17.4949C126.208 17.4949 125.618 17.7288 125.181 18.1967C124.743 18.6543 124.525 19.3154 124.525 20.1799V24.3447H123.06V16.2592H124.464V17.4644C124.759 17.0474 125.145 16.7321 125.623 16.5185C126.101 16.2948 126.645 16.1829 127.255 16.1829C127.886 16.1829 128.445 16.31 128.934 16.5643C129.422 16.8186 129.798 17.1898 130.062 17.678C130.368 17.2101 130.79 16.844 131.329 16.5796C131.878 16.3151 132.493 16.1829 133.175 16.1829Z" fill="#828282"/>
<path fill-rule="evenodd" clip-rule="evenodd" d="M3.28272 15.4633C14.8304 10.4427 22.5322 7.13187 26.3847 5.5341C37.3877 0.968115 39.6721 0.174171 41.161 0.147818C41.4911 0.141228 42.224 0.223587 42.696 0.609028C43.0132 0.882233 43.2158 1.26438 43.2639 1.6797C43.3441 2.19391 43.3662 2.71549 43.3299 3.23464C42.7324 9.48734 40.1508 24.6546 38.8402 31.6584C38.2856 34.62 37.1896 35.6116 36.1332 35.7104C34.3109 35.8752 32.8353 34.8276 31.1946 33.6581C30.7621 33.3517 30.3197 33.0387 29.8576 32.7356C28.0353 31.5431 26.629 30.5877 25.2194 29.6291L25.1067 29.5526C23.853 28.7014 22.5875 27.8422 21.0169 26.8091C17.6496 24.5953 19.056 23.238 20.9377 21.4327C21.2414 21.1395 21.5583 20.8331 21.8686 20.5136C22.0073 20.3686 22.684 19.7394 23.6414 18.8532C26.7115 16.0069 32.6339 10.5086 32.7858 9.87277C32.8089 9.76735 32.832 9.37862 32.6009 9.17437C32.3698 8.96682 32.0265 9.0393 31.7789 9.0953C31.429 9.17437 25.8598 12.8476 15.0714 20.1182C13.4901 21.1988 12.0574 21.7259 10.7732 21.6995C9.36027 21.6699 6.64006 20.9023 4.61641 20.2467C4.40387 20.176 4.19471 20.1104 3.99014 20.0462C3.90874 20.0206 3.82806 19.9953 3.74819 19.97C1.69483 19.3276 0.182867 18.8532 0.334723 17.6475C0.423857 16.9359 1.40762 16.2078 3.28272 15.4633Z" fill="#838383"/>
</svg>
