<svg width="291" height="96" viewBox="0 0 291 96" fill="none" xmlns="http://www.w3.org/2000/svg">
<path d="M89.7334 41.9152H83.8834L82.7674 44.6152H79.7794L85.3954 32.0152H88.2754L93.9094 44.6152H90.8494L89.7334 41.9152ZM88.8154 39.7012L86.8174 34.8772L84.8194 39.7012H88.8154ZM95.2167 32.0152H98.1327V42.2392H104.451V44.6152H95.2167V32.0152ZM108.996 34.3552V37.6852H114.828V40.0252H108.996V44.6152H106.08V32.0152H115.602V34.3552H108.996ZM125.347 41.9152H119.497L118.381 44.6152H115.393L121.009 32.0152H123.889L129.523 44.6152H126.463L125.347 41.9152ZM124.429 39.7012L122.431 34.8772L120.433 39.7012H124.429ZM135.928 32.0152H141.652C143.02 32.0152 144.226 32.2792 145.27 32.8072C146.326 33.3232 147.142 34.0552 147.718 35.0032C148.306 35.9512 148.6 37.0552 148.6 38.3152C148.6 39.5752 148.306 40.6792 147.718 41.6272C147.142 42.5752 146.326 43.3132 145.27 43.8412C144.226 44.3572 143.02 44.6152 141.652 44.6152H135.928V32.0152ZM141.508 42.2212C142.768 42.2212 143.77 41.8732 144.514 41.1772C145.27 40.4692 145.648 39.5152 145.648 38.3152C145.648 37.1152 145.27 36.1672 144.514 35.4712C143.77 34.7632 142.768 34.4092 141.508 34.4092H138.844V42.2212H141.508ZM150.799 32.0152H153.715V44.6152H150.799V32.0152ZM165.219 38.1172H167.883V43.2292C167.199 43.7452 166.407 44.1412 165.507 44.4172C164.607 44.6932 163.701 44.8312 162.789 44.8312C161.481 44.8312 160.305 44.5552 159.261 44.0032C158.217 43.4392 157.395 42.6652 156.795 41.6812C156.207 40.6852 155.913 39.5632 155.913 38.3152C155.913 37.0672 156.207 35.9512 156.795 34.9672C157.395 33.9712 158.223 33.1972 159.279 32.6452C160.335 32.0812 161.523 31.7992 162.843 31.7992C163.947 31.7992 164.949 31.9852 165.849 32.3572C166.749 32.7292 167.505 33.2692 168.117 33.9772L166.245 35.7052C165.345 34.7572 164.259 34.2832 162.987 34.2832C162.183 34.2832 161.469 34.4512 160.845 34.7872C160.221 35.1232 159.735 35.5972 159.387 36.2092C159.039 36.8212 158.865 37.5232 158.865 38.3152C158.865 39.0952 159.039 39.7912 159.387 40.4032C159.735 41.0152 160.215 41.4952 160.827 41.8432C161.451 42.1792 162.159 42.3472 162.951 42.3472C163.791 42.3472 164.547 42.1672 165.219 41.8072V38.1172ZM170.592 32.0152H173.508V44.6152H170.592V32.0152ZM179.108 34.3912H175.076V32.0152H186.056V34.3912H182.024V44.6152H179.108V34.3912ZM195.29 41.9152H189.44L188.324 44.6152H185.336L190.952 32.0152H193.832L199.466 44.6152H196.406L195.29 41.9152ZM194.372 39.7012L192.374 34.8772L190.376 39.7012H194.372ZM200.773 32.0152H203.689V42.2392H210.007V44.6152H200.773V32.0152Z" fill="white"/>
<path d="M89.7334 62.9562H83.8834L82.7674 65.6562H79.7794L85.3954 53.0562H88.2754L93.9094 65.6562H90.8494L89.7334 62.9562ZM88.8154 60.7422L86.8174 55.9182L84.8194 60.7422H88.8154ZM103.555 59.1582H106.219V64.2702C105.535 64.7862 104.743 65.1822 103.843 65.4582C102.943 65.7342 102.037 65.8723 101.125 65.8723C99.8169 65.8723 98.6409 65.5962 97.5969 65.0442C96.5529 64.4802 95.7309 63.7062 95.1309 62.7222C94.5429 61.7262 94.2489 60.6042 94.2489 59.3562C94.2489 58.1082 94.5429 56.9922 95.1309 56.0082C95.7309 55.0122 96.5589 54.2382 97.6149 53.6862C98.6709 53.1222 99.8589 52.8402 101.179 52.8402C102.283 52.8402 103.285 53.0262 104.185 53.3982C105.085 53.7702 105.841 54.3102 106.453 55.0182L104.581 56.7462C103.681 55.7982 102.595 55.3242 101.323 55.3242C100.519 55.3242 99.8049 55.4922 99.1809 55.8282C98.5569 56.1642 98.0709 56.6382 97.7229 57.2502C97.3749 57.8622 97.2009 58.5642 97.2009 59.3562C97.2009 60.1362 97.3749 60.8322 97.7229 61.4442C98.0709 62.0562 98.5509 62.5362 99.1629 62.8842C99.7869 63.2202 100.495 63.3882 101.287 63.3882C102.127 63.3882 102.883 63.2082 103.555 62.8482V59.1582ZM118.684 63.3162V65.6562H108.928V53.0562H118.45V55.3962H111.826V58.1322H117.676V60.4002H111.826V63.3162H118.684ZM132.56 53.0562V65.6562H130.166L123.884 58.0062V65.6562H121.004V53.0562H123.416L129.68 60.7062V53.0562H132.56ZM141.571 65.8723C140.287 65.8723 139.123 65.5962 138.079 65.0442C137.047 64.4802 136.231 63.7062 135.631 62.7222C135.043 61.7262 134.749 60.6042 134.749 59.3562C134.749 58.1082 135.043 56.9922 135.631 56.0082C136.231 55.0122 137.047 54.2382 138.079 53.6862C139.123 53.1222 140.293 52.8402 141.589 52.8402C142.681 52.8402 143.665 53.0322 144.541 53.4162C145.429 53.8002 146.173 54.3522 146.773 55.0723L144.901 56.8002C144.049 55.8162 142.993 55.3242 141.733 55.3242C140.953 55.3242 140.257 55.4982 139.645 55.8462C139.033 56.1822 138.553 56.6562 138.205 57.2682C137.869 57.8802 137.701 58.5762 137.701 59.3562C137.701 60.1362 137.869 60.8322 138.205 61.4442C138.553 62.0562 139.033 62.5362 139.645 62.8842C140.257 63.2202 140.953 63.3882 141.733 63.3882C142.993 63.3882 144.049 62.8902 144.901 61.8942L146.773 63.6222C146.173 64.3542 145.429 64.9122 144.541 65.2962C143.653 65.6802 142.663 65.8723 141.571 65.8723ZM154.667 61.1922V65.6562H151.751V61.1562L146.873 53.0562H149.969L153.335 58.6542L156.701 53.0562H159.563L154.667 61.1922Z" fill="white"/>
<path d="M56.8744 58.8777C56.4723 55.9427 55.853 53.0282 55.0224 50.1607C54.1771 47.299 53.1381 44.4785 51.876 41.743C50.5934 39.0193 49.12 36.369 47.4265 33.8478C47.0097 33.2138 46.5666 32.5945 46.1263 31.9752C45.6714 31.3648 45.2135 30.7572 44.7351 30.1673C43.7812 28.9786 42.7921 27.8163 41.7414 26.7069C40.6994 25.5916 39.6135 24.5115 38.4835 23.4813C37.9258 22.9588 37.3417 22.4628 36.7635 21.958C36.1736 21.4708 35.5837 20.9806 34.9761 20.514C32.5576 18.6385 30.0042 16.9215 27.3333 15.4217C24.6683 13.9072 21.9035 12.5806 19.0712 11.4271L14.6569 9.63086L14.5366 14.5617L14.3722 21.1098L14.3428 22.3542C14.3223 23.1115 14.3106 23.8687 14.293 24.6259C14.2548 26.4662 14.2225 28.3065 14.1902 30.1467L14.0581 37.9422L13.9789 45.7347C13.9525 48.3322 13.9261 50.9297 13.9319 53.5272C13.9319 56.1247 13.9114 58.7222 13.929 61.3197C13.9554 66.5147 13.9906 71.7097 14.1257 76.9076L14.2372 81.1752L18.3316 80.641H18.3345L18.5664 80.6058L18.7513 80.5735L19.1005 80.5089L19.7668 80.371C20.2041 80.2741 20.6297 80.1714 21.0553 80.0628C21.9006 79.8427 22.7282 79.5991 23.5471 79.3349C25.1848 78.8037 26.7786 78.1814 28.3371 77.48C31.4511 76.0741 34.4126 74.3395 37.1392 72.2908C39.8688 70.2422 42.3607 67.8765 44.5296 65.2526C46.6986 62.6287 48.5389 59.7553 50.0328 56.7381L50.8752 55.0299C50.5288 54.0878 50.159 53.1544 49.7687 52.2358C49.2404 50.9796 48.671 49.7469 48.0663 48.5494L45.2164 54.2081C43.7577 56.788 42.0231 59.1888 40.0361 61.3402C38.0462 63.4916 35.8067 65.3935 33.3795 67.0136C30.9551 68.6367 28.34 69.981 25.6192 71.0317C24.3454 71.5218 23.0481 71.9504 21.7391 72.3055C21.7978 68.6455 21.8242 64.9855 21.8419 61.3256C21.8595 58.7281 21.8389 56.1305 21.8389 53.533C21.8419 50.9355 21.8184 48.338 21.792 45.7405L21.7127 37.948L21.5806 30.1467C21.566 29.3102 21.5483 28.4708 21.5337 27.6343C21.5131 26.4603 21.4926 25.2863 21.4662 24.1094C21.4544 23.5224 21.4427 22.9383 21.428 22.3513L21.3576 19.5102C22.3878 19.9534 23.4121 20.4142 24.4188 20.9072C26.9224 22.1312 29.3379 23.5282 31.6537 25.0779C33.9577 26.6423 36.1795 28.3446 38.2428 30.2348C40.3179 32.1132 42.2286 34.1795 44.016 36.3572C45.8064 38.535 47.4177 40.8743 48.8676 43.3191C50.3322 45.7581 51.6236 48.3175 52.736 50.9649C53.8601 53.6094 54.814 56.3389 55.583 59.136C55.9733 60.5331 56.3167 61.9448 56.6044 63.3742C56.9008 64.8006 57.1444 66.2417 57.3 67.7004C57.4761 64.7683 57.2559 61.8128 56.8744 58.8777ZM17.4393 73.1743C17.4364 73.1772 17.4334 73.1772 17.4393 73.1743V73.1743Z" fill="white"/>
<path d="M60.4083 17.1944C60.6519 14.8581 60.8662 12.3428 61.0364 9.63086L52.3105 21.5559L55.3248 19.9592C54.4473 28.2918 53.3085 32.0163 52.3105 35.5971C53.1911 37.1292 54.0246 38.7229 54.7995 40.3694C54.9785 40.7569 55.1517 41.1443 55.3219 41.5376C55.9911 39.7942 58.8234 32.3715 60.4024 17.2649H60.4054L60.4083 17.1944Z" fill="white"/>
<path d="M166.913 59.5262V61.9662H170.423V62.8262H166.913V65.6562H165.913V58.6562H170.853V59.5262H166.913ZM175.343 65.7363C174.636 65.7363 173.999 65.5829 173.433 65.2762C172.866 64.9629 172.419 64.5329 172.093 63.9862C171.773 63.4396 171.613 62.8296 171.613 62.1562C171.613 61.4829 171.773 60.8729 172.093 60.3262C172.419 59.7796 172.866 59.3529 173.433 59.0462C173.999 58.7329 174.636 58.5762 175.343 58.5762C176.043 58.5762 176.676 58.7329 177.243 59.0462C177.809 59.3529 178.253 59.7796 178.573 60.3262C178.893 60.8662 179.053 61.4762 179.053 62.1562C179.053 62.8362 178.893 63.4496 178.573 63.9962C178.253 64.5362 177.809 64.9629 177.243 65.2762C176.676 65.5829 176.043 65.7363 175.343 65.7363ZM175.343 64.8462C175.856 64.8462 176.316 64.7296 176.723 64.4962C177.136 64.2629 177.459 63.9429 177.693 63.5362C177.933 63.1229 178.053 62.6629 178.053 62.1562C178.053 61.6496 177.933 61.1929 177.693 60.7862C177.459 60.3729 177.136 60.0496 176.723 59.8162C176.316 59.5829 175.856 59.4662 175.343 59.4662C174.829 59.4662 174.363 59.5829 173.943 59.8162C173.529 60.0496 173.203 60.3729 172.963 60.7862C172.729 61.1929 172.613 61.6496 172.613 62.1562C172.613 62.6629 172.729 63.1229 172.963 63.5362C173.203 63.9429 173.529 64.2629 173.943 64.4962C174.363 64.7296 174.829 64.8462 175.343 64.8462ZM185.261 65.6562L183.751 63.5062C183.565 63.5196 183.418 63.5262 183.311 63.5262H181.581V65.6562H180.581V58.6562H183.311C184.218 58.6562 184.931 58.8729 185.451 59.3062C185.971 59.7396 186.231 60.3362 186.231 61.0962C186.231 61.6362 186.098 62.0962 185.831 62.4762C185.565 62.8562 185.185 63.1329 184.691 63.3062L186.351 65.6562H185.261ZM183.281 62.6762C183.915 62.6762 184.398 62.5396 184.731 62.2662C185.065 61.9929 185.231 61.6029 185.231 61.0962C185.231 60.5896 185.065 60.2029 184.731 59.9362C184.398 59.6629 183.915 59.5262 183.281 59.5262H181.581V62.6762H183.281ZM195.242 62.0262C195.649 62.1396 195.969 62.3462 196.202 62.6462C196.436 62.9396 196.552 63.3129 196.552 63.7662C196.552 64.3729 196.322 64.8396 195.862 65.1662C195.409 65.4929 194.746 65.6562 193.872 65.6562H190.532V58.6562H193.672C194.472 58.6562 195.089 58.8162 195.522 59.1362C195.962 59.4562 196.182 59.8996 196.182 60.4662C196.182 60.8329 196.096 61.1496 195.922 61.4162C195.756 61.6829 195.529 61.8862 195.242 62.0262ZM191.532 59.4662V61.7062H193.582C194.096 61.7062 194.489 61.6129 194.762 61.4262C195.042 61.2329 195.182 60.9529 195.182 60.5862C195.182 60.2196 195.042 59.9429 194.762 59.7562C194.489 59.5629 194.096 59.4662 193.582 59.4662H191.532ZM193.832 64.8462C194.399 64.8462 194.826 64.7529 195.112 64.5662C195.399 64.3796 195.542 64.0862 195.542 63.6862C195.542 62.9062 194.972 62.5162 193.832 62.5162H191.532V64.8462H193.832ZM202.451 64.7862V65.6562H197.421V64.9762L200.271 62.2262C200.617 61.8929 200.851 61.6062 200.971 61.3662C201.091 61.1196 201.151 60.8729 201.151 60.6262C201.151 60.2596 201.021 59.9762 200.761 59.7763C200.507 59.5696 200.141 59.4662 199.661 59.4662C198.887 59.4662 198.291 59.7196 197.871 60.2262L197.191 59.6362C197.464 59.3029 197.821 59.0429 198.261 58.8562C198.707 58.6696 199.204 58.5762 199.751 58.5762C200.484 58.5762 201.067 58.7529 201.501 59.1062C201.934 59.4529 202.151 59.9262 202.151 60.5262C202.151 60.8996 202.071 61.2529 201.911 61.5862C201.751 61.9196 201.447 62.2996 201.001 62.7262L198.861 64.7862H202.451ZM208.553 62.0262C208.96 62.1396 209.28 62.3462 209.513 62.6462C209.746 62.9396 209.863 63.3129 209.863 63.7662C209.863 64.3729 209.633 64.8396 209.173 65.1662C208.72 65.4929 208.056 65.6562 207.183 65.6562H203.843V58.6562H206.983C207.783 58.6562 208.4 58.8162 208.833 59.1362C209.273 59.4562 209.493 59.8996 209.493 60.4662C209.493 60.8329 209.406 61.1496 209.233 61.4162C209.066 61.6829 208.84 61.8862 208.553 62.0262ZM204.843 59.4662V61.7062H206.893C207.406 61.7062 207.8 61.6129 208.073 61.4262C208.353 61.2329 208.493 60.9529 208.493 60.5862C208.493 60.2196 208.353 59.9429 208.073 59.7562C207.8 59.5629 207.406 59.4662 206.893 59.4662H204.843ZM207.143 64.8462C207.71 64.8462 208.136 64.7529 208.423 64.5662C208.71 64.3796 208.853 64.0862 208.853 63.6862C208.853 62.9062 208.283 62.5162 207.143 62.5162H204.843V64.8462H207.143Z" fill="white"/>
</svg>
