<svg width="26" height="97" viewBox="0 0 26 97" fill="none" xmlns="http://www.w3.org/2000/svg">
<path d="M23.2494 96.2361C24.3538 96.2189 25.2352 95.3097 25.2181 94.2053L24.9386 76.2074C24.9215 75.103 24.0123 74.2216 22.9078 74.2387C21.8034 74.2559 20.922 75.1651 20.9391 76.2695L21.1875 92.2676L5.18945 92.516C4.08501 92.5332 3.20359 93.4424 3.22074 94.5468C3.23789 95.6513 4.14711 96.5327 5.25155 96.5155L23.2494 96.2361ZM24.6104 92.8003C23.5905 91.8116 22.6156 90.8194 21.6842 89.8245L18.7641 92.5581C19.7404 93.6011 20.7607 94.6394 21.8262 95.6723L24.6104 92.8003ZM16.3339 83.4677C14.61 81.1728 13.0965 78.8706 11.7759 76.5696L8.3067 78.5607C9.7109 81.0073 11.3152 83.4466 13.1356 85.8701L16.3339 83.4677ZM8.15932 69.1532C7.09767 66.529 6.26294 63.9143 5.63009 61.321L1.74412 62.2693C2.42239 65.0487 3.31631 67.8479 4.45128 70.6533L8.15932 69.1532ZM4.27329 53.2143C4.01439 50.4269 3.96736 47.6766 4.10068 44.9792L0.105554 44.7818C-0.0366762 47.6596 0.013222 50.5997 0.29043 53.5842L4.27329 53.2143ZM5.06142 36.7796C5.57047 34.0149 6.25025 31.3311 7.0613 28.7484L3.24505 27.55C2.38822 30.2784 1.6679 33.1206 1.12755 36.0553L5.06142 36.7796ZM9.99645 20.9898C11.1656 18.357 12.4459 15.8826 13.7798 13.5964L10.3249 11.5806C8.91984 13.9888 7.57187 16.5939 6.34069 19.3664L9.99645 20.9898ZM18.3544 6.70057C19.2304 5.53981 20.0996 4.47117 20.9469 3.50174L17.935 0.869535C17.0219 1.91429 16.0925 3.05749 15.1616 4.29105L18.3544 6.70057Z" fill="#BDBDBD"/>
</svg>
