<svg width="36" height="40" viewBox="0 0 36 40" fill="none" xmlns="http://www.w3.org/2000/svg">
<circle cx="15.8269" cy="20.8156" r="12.0085" fill="white"/>
<path fill-rule="evenodd" clip-rule="evenodd" d="M15.8265 35.9001C24.1574 35.9001 30.9108 29.1466 30.9108 20.8158C30.9108 12.4849 24.1574 5.73145 15.8265 5.73145C7.49567 5.73145 0.742188 12.4849 0.742188 20.8158C0.742188 29.1466 7.49567 35.9001 15.8265 35.9001ZM11.034 18.8047C9.43741 19.5018 7.79688 20.2181 6.29679 21.0444L6.29668 21.0444C5.51334 21.618 6.55457 22.0236 7.53132 22.4041C7.68659 22.4646 7.84024 22.5245 7.98466 22.5843C8.10484 22.6212 8.22706 22.6602 8.3509 22.6996C9.43721 23.0457 10.6485 23.4317 11.7031 22.8511C13.4356 21.856 15.0705 20.7054 16.7042 19.5557C17.2394 19.179 17.7745 18.8025 18.3129 18.4315C18.3381 18.4153 18.3666 18.3968 18.3977 18.3767C18.8564 18.0793 19.8876 17.4109 19.5062 18.3321C18.604 19.3188 17.6376 20.1921 16.666 21.0703C16.0112 21.6621 15.354 22.2561 14.7125 22.8883C14.1537 23.3423 13.5735 24.2553 14.1991 24.8911C15.6388 25.899 17.101 26.8824 18.5624 27.8653C19.0398 28.1864 19.5171 28.5074 19.9936 28.8293C20.7986 29.472 22.0568 28.9521 22.2338 27.9477C22.3125 27.4861 22.3914 27.0246 22.4703 26.563C22.9071 24.0092 23.3441 21.4544 23.7301 18.8922C23.7825 18.4906 23.842 18.0889 23.9015 17.6871C24.0457 16.7125 24.1901 15.7369 24.2351 14.7571C24.1189 13.7795 22.9336 13.9945 22.2739 14.2143C18.8834 15.5044 15.5268 16.8902 12.1834 18.3004C11.8046 18.4683 11.4206 18.6359 11.034 18.8047Z" fill="#37AEE2"/>
<circle cx="29.8188" cy="8.81145" r="5.08831" fill="#81CF81"/>
</svg>
