<svg width="45" height="73" viewBox="0 0 45 73" fill="none" xmlns="http://www.w3.org/2000/svg">
<path d="M43.8744 49.8777C43.4723 46.9427 42.853 44.0282 42.0224 41.1607C41.1771 38.299 40.1381 35.4785 38.876 32.743C37.5934 30.0193 36.12 27.369 34.4265 24.8478C34.0097 24.2138 33.5666 23.5945 33.1263 22.9752C32.6714 22.3648 32.2135 21.7572 31.7351 21.1673C30.7812 19.9786 29.7921 18.8163 28.7414 17.7069C27.6994 16.5916 26.6135 15.5115 25.4835 14.4813C24.9258 13.9588 24.3417 13.4628 23.7635 12.958C23.1736 12.4708 22.5837 11.9806 21.9761 11.514C19.5576 9.63847 17.0042 7.92147 14.3333 6.42167C11.6683 4.9072 8.90349 3.58056 6.07118 2.4271L1.65689 0.630859L1.53656 5.56171L1.3722 12.1098L1.34285 13.3542C1.3223 14.1115 1.31056 14.8687 1.29295 15.6259C1.2548 17.4662 1.22251 19.3065 1.19022 21.1467L1.05815 28.9422L0.978903 36.7347C0.952487 39.3322 0.926072 41.9297 0.931942 44.5272C0.931942 47.1247 0.911397 49.7222 0.929007 52.3197C0.955422 57.5147 0.990643 62.7097 1.12565 67.9076L1.23719 72.1752L5.33155 71.641H5.33449L5.56636 71.6058L5.75126 71.5735L6.10053 71.5089L6.76678 71.371C7.2041 71.2741 7.62968 71.1714 8.05526 71.0628C8.90055 70.8427 9.72823 70.5991 10.5471 70.3349C12.1849 69.8037 13.7786 69.1814 15.3371 68.48C18.4511 67.0741 21.4126 65.3395 24.1392 63.2908C26.8688 61.2422 29.3607 58.8765 31.5296 56.2526C33.6986 53.6287 35.5389 50.7553 37.0328 47.7381L37.8752 46.0299C37.5288 45.0878 37.159 44.1544 36.7687 43.2358C36.2404 41.9796 35.671 40.7469 35.0663 39.5494L32.2164 45.2081C30.7577 47.788 29.0231 50.1888 27.0361 52.3402C25.0462 54.4916 22.8067 56.3935 20.3795 58.0136C17.9551 59.6367 15.34 60.981 12.6192 62.0317C11.3454 62.5218 10.0481 62.9504 8.73912 63.3055C8.79782 59.6455 8.82424 55.9855 8.84185 52.3256C8.85946 49.7281 8.83892 47.1305 8.83892 44.533C8.84185 41.9355 8.81837 39.338 8.79195 36.7405L8.71271 28.948L8.58063 21.1467C8.56596 20.3102 8.54835 19.4708 8.53367 18.6343C8.51313 17.4603 8.49258 16.2863 8.46617 15.1094C8.45443 14.5224 8.44269 13.9383 8.42801 13.3513L8.35757 10.5102C9.38777 10.9534 10.4121 11.4142 11.4188 11.9072C13.9224 13.1312 16.3379 14.5282 18.6537 16.0779C20.9577 17.6423 23.1795 19.3446 25.2428 21.2348C27.3179 23.1132 29.2286 25.1795 31.016 27.3572C32.8064 29.535 34.4177 31.8743 35.8676 34.3191C37.3322 36.7581 38.6236 39.3175 39.736 41.9649C40.8601 44.6094 41.814 47.3389 42.583 50.136C42.9733 51.5331 43.3167 52.9448 43.6044 54.3742C43.9008 55.8006 44.1444 57.2417 44.3 58.7004C44.4761 55.7683 44.2559 52.8128 43.8744 49.8777ZM4.4393 64.1743C4.43343 64.1772 4.43637 64.1772 4.4393 64.1743Z" fill="white"/>
</svg>
